M48
; DRILL file {KiCad (5.1.6)-1} date 03/02/21 19:52:55
; FORMAT={-:-/ absolute / inch / decimal}
; #@! TF.CreationDate,2021-03-02T19:52:55+09:00
; #@! TF.GenerationSoftware,Kicad,Pcbnew,(5.1.6)-1
; #@! TF.FileFunction,NonPlated,1,2,NPTH
FMAT,2
INCH
T1C0.0236
T2C0.0669
T3C0.1575
%
G90
G05
T1
X1.6815Y0.8917
X1.9091Y0.8917
T2
X1.2961Y-2.9921
X1.6961Y-2.9921
X2.7921Y-0.748
X3.1921Y-0.748
X0.548Y-2.2441
X0.948Y-2.2441
X2.0441Y-3.7402
X2.4441Y-3.7402
X2.7921Y-2.2441
X3.1921Y-2.2441
X2.0441Y-0.748
X2.4441Y-0.748
X0.548Y-2.9921
X0.948Y-2.9921
X2.7921Y-2.9921
X3.1921Y-2.9921
X2.7921Y-1.4961
X3.1921Y-1.4961
X1.2961Y-0.748
X1.6961Y-0.748
X1.2961Y-2.2441
X1.6961Y-2.2441
X2.0441Y-1.4961
X2.4441Y-1.4961
X0.548Y-0.748
X0.948Y-0.748
X2.7921Y-3.7402
X3.1921Y-3.7402
X2.0441Y-2.2441
X2.4441Y-2.2441
X0.548Y-3.7402
X0.948Y-3.7402
X1.2961Y-1.4961
X1.6961Y-1.4961
X1.2961Y-3.7402
X1.6961Y-3.7402
X2.0441Y-2.9921
X2.4441Y-2.9921
X0.548Y-1.4961
X0.948Y-1.4961
T3
X0.748Y-2.2441
X2.2441Y-3.7402
X2.9921Y-2.2441
X2.2441Y-0.748
X0.748Y-2.9921
X2.9921Y-2.9921
X2.9921Y-1.4961
X1.4961Y-0.748
X1.4961Y-2.2441
X2.2441Y-1.4961
X0.748Y-0.748
X2.9921Y-3.7402
X2.2441Y-2.2441
X0.748Y-3.7402
X1.4961Y-1.4961
X1.4961Y-3.7402
X2.2441Y-2.9921
X0.748Y-1.4961
X1.4961Y-2.9921
X2.9921Y-0.748
T0
M30
