M48
; DRILL file {KiCad (5.1.6)-1} date 03/02/21 19:52:55
; FORMAT={-:-/ absolute / inch / decimal}
; #@! TF.CreationDate,2021-03-02T19:52:55+09:00
; #@! TF.GenerationSoftware,Kicad,Pcbnew,(5.1.6)-1
; #@! TF.FileFunction,Plated,1,2,PTH
FMAT,2
INCH
T1C0.0157
T2C0.0236
T3C0.0315
T4C0.0394
T5C0.0591
T6C0.1260
%
G90
G05
T1
X1.1627Y0.6225
X1.2548Y0.1456
X1.4054Y0.2545
X1.4853Y0.8778
X1.5014Y0.6828
X1.8406Y0.0817
X1.8439Y0.4017
X1.9647Y0.1757
X1.9747Y0.5002
X1.9861Y0.5719
X2.1177Y0.1681
X2.2189Y0.8674
X2.2716Y-0.0662
X2.4787Y0.1591
X2.5465Y0.1579
X2.5994Y0.777
X2.6Y0.625
X2.7323Y0.3268
X2.7402Y0.5236
X2.82Y0.2154
X2.9453Y0.739
X2.9484Y1.0339
X3.0423Y0.3142
X3.0547Y0.2047
X3.1327Y0.6744
X3.1927Y0.4615
T3
X1.9141Y-1.8739
X2.2141Y-1.8739
X1.4661Y-0.3779
X1.7661Y-0.3779
X2.6181Y-2.8102
X2.6181Y-3.1102
X1.018Y-1.8739
X1.318Y-1.8739
X0.6791Y-0.2213
X0.6791Y-0.3
X2.1063Y-2.622
X2.4063Y-2.622
X1.3386Y-2.622
X1.6386Y-2.622
X1.35Y-1.125
X1.65Y-1.125
X1.125Y-0.6
X1.125Y-0.9
X2.0669Y-1.1259
X2.3669Y-1.1259
X1.9141Y-3.37
X2.2141Y-3.37
X3.248Y-0.2213
X3.248Y-0.3
X2.6181Y-2.0819
X2.6181Y-2.3819
X1.018Y-0.3779
X1.318Y-0.3779
X0.6772Y-0.0213
X0.6772Y-0.1
X2.625Y-0.6
X2.625Y-0.9
X1.4661Y-3.37
X1.7661Y-3.37
X3.2402Y-0.0213
X3.2402Y-0.1
X2.3621Y-1.8739
X2.6621Y-1.8739
X1.122Y-2.0819
X1.122Y-2.3819
X1.122Y-2.8496
X1.122Y-3.1496
X2.3621Y-0.3779
X2.6621Y-0.3779
X1.4661Y-1.8739
X1.7661Y-1.8739
X1.9141Y-0.3779
X2.2141Y-0.3779
T4
X2.65Y0.95
X2.75Y0.95
X2.85Y0.95
X2.95Y0.95
X1.05Y-0.205
X1.15Y-0.205
X1.25Y-0.205
X1.35Y-0.205
X1.45Y-0.205
T5
X0.598Y-2.1441
X0.848Y-2.0441
X2.0941Y-3.6402
X2.3441Y-3.5402
X2.8421Y-2.1441
X3.0921Y-2.0441
X2.0941Y-0.648
X2.3441Y-0.548
X0.598Y-2.8921
X0.848Y-2.7921
X2.8421Y-2.8921
X3.0921Y-2.7921
X2.8421Y-1.3961
X3.0921Y-1.2961
X1.3461Y-0.648
X1.5961Y-0.548
X1.3461Y-2.1441
X1.5961Y-2.0441
X2.0941Y-1.3961
X2.3441Y-1.2961
X0.598Y-0.648
X0.848Y-0.548
X2.8421Y-3.6402
X3.0921Y-3.5402
X2.0941Y-2.1441
X2.3441Y-2.0441
X0.598Y-3.6402
X0.848Y-3.5402
X1.3461Y-1.3961
X1.5961Y-1.2961
X1.3461Y-3.6402
X1.5961Y-3.5402
X2.0941Y-2.8921
X2.3441Y-2.7921
X0.598Y-1.3961
X0.848Y-1.2961
X1.3461Y-2.8921
X1.5961Y-2.7921
X2.8421Y-0.648
X3.0921Y-0.548
T6
X1.122Y-3.3661
X3.2283Y0.9843
X2.6181Y-3.3661
X0.5118Y0.9843
X1.8701Y-2.6181
T2
G00X1.6252Y1.0528
M15
G01X1.6252Y1.0213
M16
G05
G00X1.6252Y0.8945
M15
G01X1.6252Y0.8512
M16
G05
G00X1.9654Y1.0528
M15
G01X1.9654Y1.0213
M16
G05
G00X1.9654Y0.8945
M15
G01X1.9654Y0.8512
M16
G05
T0
M30
