%TF.GenerationSoftware,KiCad,Pcbnew,(5.1.6)-1*%
%TF.CreationDate,2021-03-02T19:52:57+09:00*%
%TF.ProjectId,Keypad4x4,4b657970-6164-4347-9834-2e6b69636164,rev?*%
%TF.SameCoordinates,Original*%
%TF.FileFunction,Soldermask,Bot*%
%TF.FilePolarity,Negative*%
%FSLAX46Y46*%
G04 Gerber Fmt 4.6, Leading zero omitted, Abs format (unit mm)*
G04 Created by KiCad (PCBNEW (5.1.6)-1) date 2021-03-02 19:52:57*
%MOMM*%
%LPD*%
G01*
G04 APERTURE LIST*
%ADD10R,1.700000X1.700000*%
%ADD11O,1.700000X1.700000*%
%ADD12C,5.800000*%
%ADD13O,1.000000X2.100000*%
%ADD14O,1.000000X1.800000*%
%ADD15C,0.700000*%
%ADD16R,1.800000X1.800000*%
%ADD17O,1.800000X1.800000*%
%ADD18C,2.300000*%
%ADD19C,4.100000*%
%ADD20C,1.800000*%
%ADD21R,1.450000X1.450000*%
%ADD22O,1.450000X1.450000*%
G04 APERTURE END LIST*
D10*
%TO.C,D1*%
X25858000Y-9598000D03*
D11*
X33478000Y-9598000D03*
%TD*%
D10*
%TO.C,D2*%
X37238000Y-9598000D03*
D11*
X44858000Y-9598000D03*
%TD*%
%TO.C,D3*%
X56238000Y-9598000D03*
D10*
X48618000Y-9598000D03*
%TD*%
D11*
%TO.C,D4*%
X67618000Y-9598000D03*
D10*
X59998000Y-9598000D03*
%TD*%
D11*
%TO.C,D5*%
X28575000Y-15240000D03*
D10*
X28575000Y-22860000D03*
%TD*%
%TO.C,D6*%
X34290000Y-28575000D03*
D11*
X41910000Y-28575000D03*
%TD*%
%TO.C,D7*%
X60120000Y-28598000D03*
D10*
X52500000Y-28598000D03*
%TD*%
%TO.C,D8*%
X66675000Y-22860000D03*
D11*
X66675000Y-15240000D03*
%TD*%
D10*
%TO.C,D9*%
X25858000Y-47598000D03*
D11*
X33478000Y-47598000D03*
%TD*%
%TO.C,D10*%
X44858000Y-47598000D03*
D10*
X37238000Y-47598000D03*
%TD*%
%TO.C,D11*%
X48618000Y-47598000D03*
D11*
X56238000Y-47598000D03*
%TD*%
%TO.C,D12*%
X67618000Y-47598000D03*
D10*
X59998000Y-47598000D03*
%TD*%
%TO.C,D13*%
X28500000Y-60500000D03*
D11*
X28500000Y-52880000D03*
%TD*%
%TO.C,D14*%
X41620000Y-66598000D03*
D10*
X34000000Y-66598000D03*
%TD*%
%TO.C,D15*%
X66500000Y-60500000D03*
D11*
X66500000Y-52880000D03*
%TD*%
%TO.C,D16*%
X61120000Y-66598000D03*
D10*
X53500000Y-66598000D03*
%TD*%
D11*
%TO.C,D17*%
X28500000Y-72380000D03*
D10*
X28500000Y-80000000D03*
%TD*%
%TO.C,D18*%
X37238000Y-85598000D03*
D11*
X44858000Y-85598000D03*
%TD*%
%TO.C,D19*%
X56238000Y-85598000D03*
D10*
X48618000Y-85598000D03*
%TD*%
%TO.C,D20*%
X66500000Y-79000000D03*
D11*
X66500000Y-71380000D03*
%TD*%
D12*
%TO.C,H1*%
X13000000Y25000000D03*
%TD*%
%TO.C,H2*%
X82000000Y25000000D03*
%TD*%
%TO.C,H3*%
X28500000Y-85500000D03*
%TD*%
%TO.C,H4*%
X66500000Y-85500000D03*
%TD*%
%TO.C,H5*%
X47500000Y-66500000D03*
%TD*%
D13*
%TO.C,J1*%
X49920000Y22170000D03*
X41280000Y22170000D03*
D14*
X49920000Y26340000D03*
X41280000Y26340000D03*
D15*
X42710000Y22650000D03*
X48490000Y22650000D03*
%TD*%
D16*
%TO.C,J2*%
X67310000Y24130000D03*
D17*
X69850000Y24130000D03*
X72390000Y24130000D03*
X74930000Y24130000D03*
%TD*%
D16*
%TO.C,J3*%
X26670000Y-5207000D03*
D17*
X29210000Y-5207000D03*
X31750000Y-5207000D03*
X34290000Y-5207000D03*
X36830000Y-5207000D03*
%TD*%
D18*
%TO.C,SW1*%
X21540000Y-13920000D03*
X15190000Y-16460000D03*
D19*
X19000000Y-19000000D03*
D20*
X13920000Y-19000000D03*
X24080000Y-19000000D03*
%TD*%
D18*
%TO.C,SW2*%
X40540000Y-13920000D03*
X34190000Y-16460000D03*
D19*
X38000000Y-19000000D03*
D20*
X32920000Y-19000000D03*
X43080000Y-19000000D03*
%TD*%
D18*
%TO.C,SW3*%
X59540000Y-13920000D03*
X53190000Y-16460000D03*
D19*
X57000000Y-19000000D03*
D20*
X51920000Y-19000000D03*
X62080000Y-19000000D03*
%TD*%
D18*
%TO.C,SW4*%
X78540000Y-13920000D03*
X72190000Y-16460000D03*
D19*
X76000000Y-19000000D03*
D20*
X70920000Y-19000000D03*
X81080000Y-19000000D03*
%TD*%
%TO.C,SW5*%
X24080000Y-38000000D03*
X13920000Y-38000000D03*
D19*
X19000000Y-38000000D03*
D18*
X15190000Y-35460000D03*
X21540000Y-32920000D03*
%TD*%
%TO.C,SW6*%
X40540000Y-32920000D03*
X34190000Y-35460000D03*
D19*
X38000000Y-38000000D03*
D20*
X32920000Y-38000000D03*
X43080000Y-38000000D03*
%TD*%
%TO.C,SW7*%
X62080000Y-38000000D03*
X51920000Y-38000000D03*
D19*
X57000000Y-38000000D03*
D18*
X53190000Y-35460000D03*
X59540000Y-32920000D03*
%TD*%
%TO.C,SW8*%
X78540000Y-32920000D03*
X72190000Y-35460000D03*
D19*
X76000000Y-38000000D03*
D20*
X70920000Y-38000000D03*
X81080000Y-38000000D03*
%TD*%
%TO.C,SW9*%
X24080000Y-57000000D03*
X13920000Y-57000000D03*
D19*
X19000000Y-57000000D03*
D18*
X15190000Y-54460000D03*
X21540000Y-51920000D03*
%TD*%
D20*
%TO.C,SW10*%
X43080000Y-57000000D03*
X32920000Y-57000000D03*
D19*
X38000000Y-57000000D03*
D18*
X34190000Y-54460000D03*
X40540000Y-51920000D03*
%TD*%
D20*
%TO.C,SW11*%
X62080000Y-57000000D03*
X51920000Y-57000000D03*
D19*
X57000000Y-57000000D03*
D18*
X53190000Y-54460000D03*
X59540000Y-51920000D03*
%TD*%
D20*
%TO.C,SW12*%
X81080000Y-57000000D03*
X70920000Y-57000000D03*
D19*
X76000000Y-57000000D03*
D18*
X72190000Y-54460000D03*
X78540000Y-51920000D03*
%TD*%
D20*
%TO.C,SW13*%
X24080000Y-76000000D03*
X13920000Y-76000000D03*
D19*
X19000000Y-76000000D03*
D18*
X15190000Y-73460000D03*
X21540000Y-70920000D03*
%TD*%
%TO.C,SW14*%
X40540000Y-70920000D03*
X34190000Y-73460000D03*
D19*
X38000000Y-76000000D03*
D20*
X32920000Y-76000000D03*
X43080000Y-76000000D03*
%TD*%
D18*
%TO.C,SW15*%
X59540000Y-70920000D03*
X53190000Y-73460000D03*
D19*
X57000000Y-76000000D03*
D20*
X51920000Y-76000000D03*
X62080000Y-76000000D03*
%TD*%
D18*
%TO.C,SW16*%
X78540000Y-70920000D03*
X72190000Y-73460000D03*
D19*
X76000000Y-76000000D03*
D20*
X70920000Y-76000000D03*
X81080000Y-76000000D03*
%TD*%
D18*
%TO.C,SW17*%
X21540000Y-89920000D03*
X15190000Y-92460000D03*
D19*
X19000000Y-95000000D03*
D20*
X13920000Y-95000000D03*
X24080000Y-95000000D03*
%TD*%
%TO.C,SW18*%
X43080000Y-95000000D03*
X32920000Y-95000000D03*
D19*
X38000000Y-95000000D03*
D18*
X34190000Y-92460000D03*
X40540000Y-89920000D03*
%TD*%
D20*
%TO.C,SW19*%
X62080000Y-95000000D03*
X51920000Y-95000000D03*
D19*
X57000000Y-95000000D03*
D18*
X53190000Y-92460000D03*
X59540000Y-89920000D03*
%TD*%
D20*
%TO.C,SW20*%
X81080000Y-95000000D03*
X70920000Y-95000000D03*
D19*
X76000000Y-95000000D03*
D18*
X72190000Y-92460000D03*
X78540000Y-89920000D03*
%TD*%
D21*
%TO.C,J4*%
X17200000Y-2540000D03*
D22*
X17200000Y-540000D03*
%TD*%
%TO.C,J5*%
X82300000Y-540000D03*
D21*
X82300000Y-2540000D03*
%TD*%
D22*
%TO.C,J6*%
X17250000Y-5620000D03*
D21*
X17250000Y-7620000D03*
%TD*%
%TO.C,J7*%
X82500000Y-7620000D03*
D22*
X82500000Y-5620000D03*
%TD*%
M02*
