%TF.GenerationSoftware,KiCad,Pcbnew,(5.1.6)-1*%
%TF.CreationDate,2021-03-02T19:52:57+09:00*%
%TF.ProjectId,Keypad4x4,4b657970-6164-4347-9834-2e6b69636164,rev?*%
%TF.SameCoordinates,Original*%
%TF.FileFunction,Soldermask,Top*%
%TF.FilePolarity,Negative*%
%FSLAX46Y46*%
G04 Gerber Fmt 4.6, Leading zero omitted, Abs format (unit mm)*
G04 Created by KiCad (PCBNEW (5.1.6)-1) date 2021-03-02 19:52:57*
%MOMM*%
%LPD*%
G01*
G04 APERTURE LIST*
%ADD10R,1.700000X1.700000*%
%ADD11O,1.700000X1.700000*%
%ADD12C,5.800000*%
%ADD13O,1.000000X2.100000*%
%ADD14O,1.000000X1.800000*%
%ADD15R,0.400000X1.260000*%
%ADD16C,0.700000*%
%ADD17R,0.700000X1.260000*%
%ADD18R,1.800000X1.800000*%
%ADD19O,1.800000X1.800000*%
%ADD20C,2.300000*%
%ADD21C,4.100000*%
%ADD22C,1.800000*%
%ADD23R,2.100000X3.900000*%
%ADD24R,2.100000X1.600000*%
%ADD25R,1.160000X0.750000*%
%ADD26R,1.900000X2.200000*%
%ADD27R,1.450000X1.450000*%
%ADD28O,1.450000X1.450000*%
G04 APERTURE END LIST*
%TO.C,U2*%
G36*
G01*
X68481000Y3873000D02*
X68481000Y3673000D01*
G75*
G02*
X68381000Y3573000I-100000J0D01*
G01*
X66881000Y3573000D01*
G75*
G02*
X66781000Y3673000I0J100000D01*
G01*
X66781000Y3873000D01*
G75*
G02*
X66881000Y3973000I100000J0D01*
G01*
X68381000Y3973000D01*
G75*
G02*
X68481000Y3873000I0J-100000D01*
G01*
G37*
G36*
G01*
X68481000Y4373000D02*
X68481000Y4173000D01*
G75*
G02*
X68381000Y4073000I-100000J0D01*
G01*
X66881000Y4073000D01*
G75*
G02*
X66781000Y4173000I0J100000D01*
G01*
X66781000Y4373000D01*
G75*
G02*
X66881000Y4473000I100000J0D01*
G01*
X68381000Y4473000D01*
G75*
G02*
X68481000Y4373000I0J-100000D01*
G01*
G37*
G36*
G01*
X68481000Y4873000D02*
X68481000Y4673000D01*
G75*
G02*
X68381000Y4573000I-100000J0D01*
G01*
X66881000Y4573000D01*
G75*
G02*
X66781000Y4673000I0J100000D01*
G01*
X66781000Y4873000D01*
G75*
G02*
X66881000Y4973000I100000J0D01*
G01*
X68381000Y4973000D01*
G75*
G02*
X68481000Y4873000I0J-100000D01*
G01*
G37*
G36*
G01*
X68481000Y5373000D02*
X68481000Y5173000D01*
G75*
G02*
X68381000Y5073000I-100000J0D01*
G01*
X66881000Y5073000D01*
G75*
G02*
X66781000Y5173000I0J100000D01*
G01*
X66781000Y5373000D01*
G75*
G02*
X66881000Y5473000I100000J0D01*
G01*
X68381000Y5473000D01*
G75*
G02*
X68481000Y5373000I0J-100000D01*
G01*
G37*
G36*
G01*
X68481000Y5873000D02*
X68481000Y5673000D01*
G75*
G02*
X68381000Y5573000I-100000J0D01*
G01*
X66881000Y5573000D01*
G75*
G02*
X66781000Y5673000I0J100000D01*
G01*
X66781000Y5873000D01*
G75*
G02*
X66881000Y5973000I100000J0D01*
G01*
X68381000Y5973000D01*
G75*
G02*
X68481000Y5873000I0J-100000D01*
G01*
G37*
G36*
G01*
X68481000Y6373000D02*
X68481000Y6173000D01*
G75*
G02*
X68381000Y6073000I-100000J0D01*
G01*
X66881000Y6073000D01*
G75*
G02*
X66781000Y6173000I0J100000D01*
G01*
X66781000Y6373000D01*
G75*
G02*
X66881000Y6473000I100000J0D01*
G01*
X68381000Y6473000D01*
G75*
G02*
X68481000Y6373000I0J-100000D01*
G01*
G37*
G36*
G01*
X68481000Y6873000D02*
X68481000Y6673000D01*
G75*
G02*
X68381000Y6573000I-100000J0D01*
G01*
X66881000Y6573000D01*
G75*
G02*
X66781000Y6673000I0J100000D01*
G01*
X66781000Y6873000D01*
G75*
G02*
X66881000Y6973000I100000J0D01*
G01*
X68381000Y6973000D01*
G75*
G02*
X68481000Y6873000I0J-100000D01*
G01*
G37*
G36*
G01*
X68481000Y7373000D02*
X68481000Y7173000D01*
G75*
G02*
X68381000Y7073000I-100000J0D01*
G01*
X66881000Y7073000D01*
G75*
G02*
X66781000Y7173000I0J100000D01*
G01*
X66781000Y7373000D01*
G75*
G02*
X66881000Y7473000I100000J0D01*
G01*
X68381000Y7473000D01*
G75*
G02*
X68481000Y7373000I0J-100000D01*
G01*
G37*
G36*
G01*
X68481000Y7873000D02*
X68481000Y7673000D01*
G75*
G02*
X68381000Y7573000I-100000J0D01*
G01*
X66881000Y7573000D01*
G75*
G02*
X66781000Y7673000I0J100000D01*
G01*
X66781000Y7873000D01*
G75*
G02*
X66881000Y7973000I100000J0D01*
G01*
X68381000Y7973000D01*
G75*
G02*
X68481000Y7873000I0J-100000D01*
G01*
G37*
G36*
G01*
X68481000Y8373000D02*
X68481000Y8173000D01*
G75*
G02*
X68381000Y8073000I-100000J0D01*
G01*
X66881000Y8073000D01*
G75*
G02*
X66781000Y8173000I0J100000D01*
G01*
X66781000Y8373000D01*
G75*
G02*
X66881000Y8473000I100000J0D01*
G01*
X68381000Y8473000D01*
G75*
G02*
X68481000Y8373000I0J-100000D01*
G01*
G37*
G36*
G01*
X68481000Y8873000D02*
X68481000Y8673000D01*
G75*
G02*
X68381000Y8573000I-100000J0D01*
G01*
X66881000Y8573000D01*
G75*
G02*
X66781000Y8673000I0J100000D01*
G01*
X66781000Y8873000D01*
G75*
G02*
X66881000Y8973000I100000J0D01*
G01*
X68381000Y8973000D01*
G75*
G02*
X68481000Y8873000I0J-100000D01*
G01*
G37*
G36*
G01*
X68481000Y9373000D02*
X68481000Y9173000D01*
G75*
G02*
X68381000Y9073000I-100000J0D01*
G01*
X66881000Y9073000D01*
G75*
G02*
X66781000Y9173000I0J100000D01*
G01*
X66781000Y9373000D01*
G75*
G02*
X66881000Y9473000I100000J0D01*
G01*
X68381000Y9473000D01*
G75*
G02*
X68481000Y9373000I0J-100000D01*
G01*
G37*
G36*
G01*
X68481000Y9873000D02*
X68481000Y9673000D01*
G75*
G02*
X68381000Y9573000I-100000J0D01*
G01*
X66881000Y9573000D01*
G75*
G02*
X66781000Y9673000I0J100000D01*
G01*
X66781000Y9873000D01*
G75*
G02*
X66881000Y9973000I100000J0D01*
G01*
X68381000Y9973000D01*
G75*
G02*
X68481000Y9873000I0J-100000D01*
G01*
G37*
G36*
G01*
X68481000Y10373000D02*
X68481000Y10173000D01*
G75*
G02*
X68381000Y10073000I-100000J0D01*
G01*
X66881000Y10073000D01*
G75*
G02*
X66781000Y10173000I0J100000D01*
G01*
X66781000Y10373000D01*
G75*
G02*
X66881000Y10473000I100000J0D01*
G01*
X68381000Y10473000D01*
G75*
G02*
X68481000Y10373000I0J-100000D01*
G01*
G37*
G36*
G01*
X68481000Y10873000D02*
X68481000Y10673000D01*
G75*
G02*
X68381000Y10573000I-100000J0D01*
G01*
X66881000Y10573000D01*
G75*
G02*
X66781000Y10673000I0J100000D01*
G01*
X66781000Y10873000D01*
G75*
G02*
X66881000Y10973000I100000J0D01*
G01*
X68381000Y10973000D01*
G75*
G02*
X68481000Y10873000I0J-100000D01*
G01*
G37*
G36*
G01*
X68481000Y11373000D02*
X68481000Y11173000D01*
G75*
G02*
X68381000Y11073000I-100000J0D01*
G01*
X66881000Y11073000D01*
G75*
G02*
X66781000Y11173000I0J100000D01*
G01*
X66781000Y11373000D01*
G75*
G02*
X66881000Y11473000I100000J0D01*
G01*
X68381000Y11473000D01*
G75*
G02*
X68481000Y11373000I0J-100000D01*
G01*
G37*
G36*
G01*
X68481000Y11873000D02*
X68481000Y11673000D01*
G75*
G02*
X68381000Y11573000I-100000J0D01*
G01*
X66881000Y11573000D01*
G75*
G02*
X66781000Y11673000I0J100000D01*
G01*
X66781000Y11873000D01*
G75*
G02*
X66881000Y11973000I100000J0D01*
G01*
X68381000Y11973000D01*
G75*
G02*
X68481000Y11873000I0J-100000D01*
G01*
G37*
G36*
G01*
X68481000Y12373000D02*
X68481000Y12173000D01*
G75*
G02*
X68381000Y12073000I-100000J0D01*
G01*
X66881000Y12073000D01*
G75*
G02*
X66781000Y12173000I0J100000D01*
G01*
X66781000Y12373000D01*
G75*
G02*
X66881000Y12473000I100000J0D01*
G01*
X68381000Y12473000D01*
G75*
G02*
X68481000Y12373000I0J-100000D01*
G01*
G37*
G36*
G01*
X68481000Y12873000D02*
X68481000Y12673000D01*
G75*
G02*
X68381000Y12573000I-100000J0D01*
G01*
X66881000Y12573000D01*
G75*
G02*
X66781000Y12673000I0J100000D01*
G01*
X66781000Y12873000D01*
G75*
G02*
X66881000Y12973000I100000J0D01*
G01*
X68381000Y12973000D01*
G75*
G02*
X68481000Y12873000I0J-100000D01*
G01*
G37*
G36*
G01*
X68481000Y13373000D02*
X68481000Y13173000D01*
G75*
G02*
X68381000Y13073000I-100000J0D01*
G01*
X66881000Y13073000D01*
G75*
G02*
X66781000Y13173000I0J100000D01*
G01*
X66781000Y13373000D01*
G75*
G02*
X66881000Y13473000I100000J0D01*
G01*
X68381000Y13473000D01*
G75*
G02*
X68481000Y13373000I0J-100000D01*
G01*
G37*
G36*
G01*
X68481000Y13873000D02*
X68481000Y13673000D01*
G75*
G02*
X68381000Y13573000I-100000J0D01*
G01*
X66881000Y13573000D01*
G75*
G02*
X66781000Y13673000I0J100000D01*
G01*
X66781000Y13873000D01*
G75*
G02*
X66881000Y13973000I100000J0D01*
G01*
X68381000Y13973000D01*
G75*
G02*
X68481000Y13873000I0J-100000D01*
G01*
G37*
G36*
G01*
X68481000Y14373000D02*
X68481000Y14173000D01*
G75*
G02*
X68381000Y14073000I-100000J0D01*
G01*
X66881000Y14073000D01*
G75*
G02*
X66781000Y14173000I0J100000D01*
G01*
X66781000Y14373000D01*
G75*
G02*
X66881000Y14473000I100000J0D01*
G01*
X68381000Y14473000D01*
G75*
G02*
X68481000Y14373000I0J-100000D01*
G01*
G37*
G36*
G01*
X68481000Y14873000D02*
X68481000Y14673000D01*
G75*
G02*
X68381000Y14573000I-100000J0D01*
G01*
X66881000Y14573000D01*
G75*
G02*
X66781000Y14673000I0J100000D01*
G01*
X66781000Y14873000D01*
G75*
G02*
X66881000Y14973000I100000J0D01*
G01*
X68381000Y14973000D01*
G75*
G02*
X68481000Y14873000I0J-100000D01*
G01*
G37*
G36*
G01*
X68481000Y15373000D02*
X68481000Y15173000D01*
G75*
G02*
X68381000Y15073000I-100000J0D01*
G01*
X66881000Y15073000D01*
G75*
G02*
X66781000Y15173000I0J100000D01*
G01*
X66781000Y15373000D01*
G75*
G02*
X66881000Y15473000I100000J0D01*
G01*
X68381000Y15473000D01*
G75*
G02*
X68481000Y15373000I0J-100000D01*
G01*
G37*
G36*
G01*
X68481000Y15873000D02*
X68481000Y15673000D01*
G75*
G02*
X68381000Y15573000I-100000J0D01*
G01*
X66881000Y15573000D01*
G75*
G02*
X66781000Y15673000I0J100000D01*
G01*
X66781000Y15873000D01*
G75*
G02*
X66881000Y15973000I100000J0D01*
G01*
X68381000Y15973000D01*
G75*
G02*
X68481000Y15873000I0J-100000D01*
G01*
G37*
G36*
G01*
X66156000Y18198000D02*
X66156000Y16698000D01*
G75*
G02*
X66056000Y16598000I-100000J0D01*
G01*
X65856000Y16598000D01*
G75*
G02*
X65756000Y16698000I0J100000D01*
G01*
X65756000Y18198000D01*
G75*
G02*
X65856000Y18298000I100000J0D01*
G01*
X66056000Y18298000D01*
G75*
G02*
X66156000Y18198000I0J-100000D01*
G01*
G37*
G36*
G01*
X65656000Y18198000D02*
X65656000Y16698000D01*
G75*
G02*
X65556000Y16598000I-100000J0D01*
G01*
X65356000Y16598000D01*
G75*
G02*
X65256000Y16698000I0J100000D01*
G01*
X65256000Y18198000D01*
G75*
G02*
X65356000Y18298000I100000J0D01*
G01*
X65556000Y18298000D01*
G75*
G02*
X65656000Y18198000I0J-100000D01*
G01*
G37*
G36*
G01*
X65156000Y18198000D02*
X65156000Y16698000D01*
G75*
G02*
X65056000Y16598000I-100000J0D01*
G01*
X64856000Y16598000D01*
G75*
G02*
X64756000Y16698000I0J100000D01*
G01*
X64756000Y18198000D01*
G75*
G02*
X64856000Y18298000I100000J0D01*
G01*
X65056000Y18298000D01*
G75*
G02*
X65156000Y18198000I0J-100000D01*
G01*
G37*
G36*
G01*
X64656000Y18198000D02*
X64656000Y16698000D01*
G75*
G02*
X64556000Y16598000I-100000J0D01*
G01*
X64356000Y16598000D01*
G75*
G02*
X64256000Y16698000I0J100000D01*
G01*
X64256000Y18198000D01*
G75*
G02*
X64356000Y18298000I100000J0D01*
G01*
X64556000Y18298000D01*
G75*
G02*
X64656000Y18198000I0J-100000D01*
G01*
G37*
G36*
G01*
X64156000Y18198000D02*
X64156000Y16698000D01*
G75*
G02*
X64056000Y16598000I-100000J0D01*
G01*
X63856000Y16598000D01*
G75*
G02*
X63756000Y16698000I0J100000D01*
G01*
X63756000Y18198000D01*
G75*
G02*
X63856000Y18298000I100000J0D01*
G01*
X64056000Y18298000D01*
G75*
G02*
X64156000Y18198000I0J-100000D01*
G01*
G37*
G36*
G01*
X63656000Y18198000D02*
X63656000Y16698000D01*
G75*
G02*
X63556000Y16598000I-100000J0D01*
G01*
X63356000Y16598000D01*
G75*
G02*
X63256000Y16698000I0J100000D01*
G01*
X63256000Y18198000D01*
G75*
G02*
X63356000Y18298000I100000J0D01*
G01*
X63556000Y18298000D01*
G75*
G02*
X63656000Y18198000I0J-100000D01*
G01*
G37*
G36*
G01*
X63156000Y18198000D02*
X63156000Y16698000D01*
G75*
G02*
X63056000Y16598000I-100000J0D01*
G01*
X62856000Y16598000D01*
G75*
G02*
X62756000Y16698000I0J100000D01*
G01*
X62756000Y18198000D01*
G75*
G02*
X62856000Y18298000I100000J0D01*
G01*
X63056000Y18298000D01*
G75*
G02*
X63156000Y18198000I0J-100000D01*
G01*
G37*
G36*
G01*
X62656000Y18198000D02*
X62656000Y16698000D01*
G75*
G02*
X62556000Y16598000I-100000J0D01*
G01*
X62356000Y16598000D01*
G75*
G02*
X62256000Y16698000I0J100000D01*
G01*
X62256000Y18198000D01*
G75*
G02*
X62356000Y18298000I100000J0D01*
G01*
X62556000Y18298000D01*
G75*
G02*
X62656000Y18198000I0J-100000D01*
G01*
G37*
G36*
G01*
X62156000Y18198000D02*
X62156000Y16698000D01*
G75*
G02*
X62056000Y16598000I-100000J0D01*
G01*
X61856000Y16598000D01*
G75*
G02*
X61756000Y16698000I0J100000D01*
G01*
X61756000Y18198000D01*
G75*
G02*
X61856000Y18298000I100000J0D01*
G01*
X62056000Y18298000D01*
G75*
G02*
X62156000Y18198000I0J-100000D01*
G01*
G37*
G36*
G01*
X61656000Y18198000D02*
X61656000Y16698000D01*
G75*
G02*
X61556000Y16598000I-100000J0D01*
G01*
X61356000Y16598000D01*
G75*
G02*
X61256000Y16698000I0J100000D01*
G01*
X61256000Y18198000D01*
G75*
G02*
X61356000Y18298000I100000J0D01*
G01*
X61556000Y18298000D01*
G75*
G02*
X61656000Y18198000I0J-100000D01*
G01*
G37*
G36*
G01*
X61156000Y18198000D02*
X61156000Y16698000D01*
G75*
G02*
X61056000Y16598000I-100000J0D01*
G01*
X60856000Y16598000D01*
G75*
G02*
X60756000Y16698000I0J100000D01*
G01*
X60756000Y18198000D01*
G75*
G02*
X60856000Y18298000I100000J0D01*
G01*
X61056000Y18298000D01*
G75*
G02*
X61156000Y18198000I0J-100000D01*
G01*
G37*
G36*
G01*
X60656000Y18198000D02*
X60656000Y16698000D01*
G75*
G02*
X60556000Y16598000I-100000J0D01*
G01*
X60356000Y16598000D01*
G75*
G02*
X60256000Y16698000I0J100000D01*
G01*
X60256000Y18198000D01*
G75*
G02*
X60356000Y18298000I100000J0D01*
G01*
X60556000Y18298000D01*
G75*
G02*
X60656000Y18198000I0J-100000D01*
G01*
G37*
G36*
G01*
X60156000Y18198000D02*
X60156000Y16698000D01*
G75*
G02*
X60056000Y16598000I-100000J0D01*
G01*
X59856000Y16598000D01*
G75*
G02*
X59756000Y16698000I0J100000D01*
G01*
X59756000Y18198000D01*
G75*
G02*
X59856000Y18298000I100000J0D01*
G01*
X60056000Y18298000D01*
G75*
G02*
X60156000Y18198000I0J-100000D01*
G01*
G37*
G36*
G01*
X59656000Y18198000D02*
X59656000Y16698000D01*
G75*
G02*
X59556000Y16598000I-100000J0D01*
G01*
X59356000Y16598000D01*
G75*
G02*
X59256000Y16698000I0J100000D01*
G01*
X59256000Y18198000D01*
G75*
G02*
X59356000Y18298000I100000J0D01*
G01*
X59556000Y18298000D01*
G75*
G02*
X59656000Y18198000I0J-100000D01*
G01*
G37*
G36*
G01*
X59156000Y18198000D02*
X59156000Y16698000D01*
G75*
G02*
X59056000Y16598000I-100000J0D01*
G01*
X58856000Y16598000D01*
G75*
G02*
X58756000Y16698000I0J100000D01*
G01*
X58756000Y18198000D01*
G75*
G02*
X58856000Y18298000I100000J0D01*
G01*
X59056000Y18298000D01*
G75*
G02*
X59156000Y18198000I0J-100000D01*
G01*
G37*
G36*
G01*
X58656000Y18198000D02*
X58656000Y16698000D01*
G75*
G02*
X58556000Y16598000I-100000J0D01*
G01*
X58356000Y16598000D01*
G75*
G02*
X58256000Y16698000I0J100000D01*
G01*
X58256000Y18198000D01*
G75*
G02*
X58356000Y18298000I100000J0D01*
G01*
X58556000Y18298000D01*
G75*
G02*
X58656000Y18198000I0J-100000D01*
G01*
G37*
G36*
G01*
X58156000Y18198000D02*
X58156000Y16698000D01*
G75*
G02*
X58056000Y16598000I-100000J0D01*
G01*
X57856000Y16598000D01*
G75*
G02*
X57756000Y16698000I0J100000D01*
G01*
X57756000Y18198000D01*
G75*
G02*
X57856000Y18298000I100000J0D01*
G01*
X58056000Y18298000D01*
G75*
G02*
X58156000Y18198000I0J-100000D01*
G01*
G37*
G36*
G01*
X57656000Y18198000D02*
X57656000Y16698000D01*
G75*
G02*
X57556000Y16598000I-100000J0D01*
G01*
X57356000Y16598000D01*
G75*
G02*
X57256000Y16698000I0J100000D01*
G01*
X57256000Y18198000D01*
G75*
G02*
X57356000Y18298000I100000J0D01*
G01*
X57556000Y18298000D01*
G75*
G02*
X57656000Y18198000I0J-100000D01*
G01*
G37*
G36*
G01*
X57156000Y18198000D02*
X57156000Y16698000D01*
G75*
G02*
X57056000Y16598000I-100000J0D01*
G01*
X56856000Y16598000D01*
G75*
G02*
X56756000Y16698000I0J100000D01*
G01*
X56756000Y18198000D01*
G75*
G02*
X56856000Y18298000I100000J0D01*
G01*
X57056000Y18298000D01*
G75*
G02*
X57156000Y18198000I0J-100000D01*
G01*
G37*
G36*
G01*
X56656000Y18198000D02*
X56656000Y16698000D01*
G75*
G02*
X56556000Y16598000I-100000J0D01*
G01*
X56356000Y16598000D01*
G75*
G02*
X56256000Y16698000I0J100000D01*
G01*
X56256000Y18198000D01*
G75*
G02*
X56356000Y18298000I100000J0D01*
G01*
X56556000Y18298000D01*
G75*
G02*
X56656000Y18198000I0J-100000D01*
G01*
G37*
G36*
G01*
X56156000Y18198000D02*
X56156000Y16698000D01*
G75*
G02*
X56056000Y16598000I-100000J0D01*
G01*
X55856000Y16598000D01*
G75*
G02*
X55756000Y16698000I0J100000D01*
G01*
X55756000Y18198000D01*
G75*
G02*
X55856000Y18298000I100000J0D01*
G01*
X56056000Y18298000D01*
G75*
G02*
X56156000Y18198000I0J-100000D01*
G01*
G37*
G36*
G01*
X55656000Y18198000D02*
X55656000Y16698000D01*
G75*
G02*
X55556000Y16598000I-100000J0D01*
G01*
X55356000Y16598000D01*
G75*
G02*
X55256000Y16698000I0J100000D01*
G01*
X55256000Y18198000D01*
G75*
G02*
X55356000Y18298000I100000J0D01*
G01*
X55556000Y18298000D01*
G75*
G02*
X55656000Y18198000I0J-100000D01*
G01*
G37*
G36*
G01*
X55156000Y18198000D02*
X55156000Y16698000D01*
G75*
G02*
X55056000Y16598000I-100000J0D01*
G01*
X54856000Y16598000D01*
G75*
G02*
X54756000Y16698000I0J100000D01*
G01*
X54756000Y18198000D01*
G75*
G02*
X54856000Y18298000I100000J0D01*
G01*
X55056000Y18298000D01*
G75*
G02*
X55156000Y18198000I0J-100000D01*
G01*
G37*
G36*
G01*
X54656000Y18198000D02*
X54656000Y16698000D01*
G75*
G02*
X54556000Y16598000I-100000J0D01*
G01*
X54356000Y16598000D01*
G75*
G02*
X54256000Y16698000I0J100000D01*
G01*
X54256000Y18198000D01*
G75*
G02*
X54356000Y18298000I100000J0D01*
G01*
X54556000Y18298000D01*
G75*
G02*
X54656000Y18198000I0J-100000D01*
G01*
G37*
G36*
G01*
X54156000Y18198000D02*
X54156000Y16698000D01*
G75*
G02*
X54056000Y16598000I-100000J0D01*
G01*
X53856000Y16598000D01*
G75*
G02*
X53756000Y16698000I0J100000D01*
G01*
X53756000Y18198000D01*
G75*
G02*
X53856000Y18298000I100000J0D01*
G01*
X54056000Y18298000D01*
G75*
G02*
X54156000Y18198000I0J-100000D01*
G01*
G37*
G36*
G01*
X53131000Y15873000D02*
X53131000Y15673000D01*
G75*
G02*
X53031000Y15573000I-100000J0D01*
G01*
X51531000Y15573000D01*
G75*
G02*
X51431000Y15673000I0J100000D01*
G01*
X51431000Y15873000D01*
G75*
G02*
X51531000Y15973000I100000J0D01*
G01*
X53031000Y15973000D01*
G75*
G02*
X53131000Y15873000I0J-100000D01*
G01*
G37*
G36*
G01*
X53131000Y15373000D02*
X53131000Y15173000D01*
G75*
G02*
X53031000Y15073000I-100000J0D01*
G01*
X51531000Y15073000D01*
G75*
G02*
X51431000Y15173000I0J100000D01*
G01*
X51431000Y15373000D01*
G75*
G02*
X51531000Y15473000I100000J0D01*
G01*
X53031000Y15473000D01*
G75*
G02*
X53131000Y15373000I0J-100000D01*
G01*
G37*
G36*
G01*
X53131000Y14873000D02*
X53131000Y14673000D01*
G75*
G02*
X53031000Y14573000I-100000J0D01*
G01*
X51531000Y14573000D01*
G75*
G02*
X51431000Y14673000I0J100000D01*
G01*
X51431000Y14873000D01*
G75*
G02*
X51531000Y14973000I100000J0D01*
G01*
X53031000Y14973000D01*
G75*
G02*
X53131000Y14873000I0J-100000D01*
G01*
G37*
G36*
G01*
X53131000Y14373000D02*
X53131000Y14173000D01*
G75*
G02*
X53031000Y14073000I-100000J0D01*
G01*
X51531000Y14073000D01*
G75*
G02*
X51431000Y14173000I0J100000D01*
G01*
X51431000Y14373000D01*
G75*
G02*
X51531000Y14473000I100000J0D01*
G01*
X53031000Y14473000D01*
G75*
G02*
X53131000Y14373000I0J-100000D01*
G01*
G37*
G36*
G01*
X53131000Y13873000D02*
X53131000Y13673000D01*
G75*
G02*
X53031000Y13573000I-100000J0D01*
G01*
X51531000Y13573000D01*
G75*
G02*
X51431000Y13673000I0J100000D01*
G01*
X51431000Y13873000D01*
G75*
G02*
X51531000Y13973000I100000J0D01*
G01*
X53031000Y13973000D01*
G75*
G02*
X53131000Y13873000I0J-100000D01*
G01*
G37*
G36*
G01*
X53131000Y13373000D02*
X53131000Y13173000D01*
G75*
G02*
X53031000Y13073000I-100000J0D01*
G01*
X51531000Y13073000D01*
G75*
G02*
X51431000Y13173000I0J100000D01*
G01*
X51431000Y13373000D01*
G75*
G02*
X51531000Y13473000I100000J0D01*
G01*
X53031000Y13473000D01*
G75*
G02*
X53131000Y13373000I0J-100000D01*
G01*
G37*
G36*
G01*
X53131000Y12873000D02*
X53131000Y12673000D01*
G75*
G02*
X53031000Y12573000I-100000J0D01*
G01*
X51531000Y12573000D01*
G75*
G02*
X51431000Y12673000I0J100000D01*
G01*
X51431000Y12873000D01*
G75*
G02*
X51531000Y12973000I100000J0D01*
G01*
X53031000Y12973000D01*
G75*
G02*
X53131000Y12873000I0J-100000D01*
G01*
G37*
G36*
G01*
X53131000Y12373000D02*
X53131000Y12173000D01*
G75*
G02*
X53031000Y12073000I-100000J0D01*
G01*
X51531000Y12073000D01*
G75*
G02*
X51431000Y12173000I0J100000D01*
G01*
X51431000Y12373000D01*
G75*
G02*
X51531000Y12473000I100000J0D01*
G01*
X53031000Y12473000D01*
G75*
G02*
X53131000Y12373000I0J-100000D01*
G01*
G37*
G36*
G01*
X53131000Y11873000D02*
X53131000Y11673000D01*
G75*
G02*
X53031000Y11573000I-100000J0D01*
G01*
X51531000Y11573000D01*
G75*
G02*
X51431000Y11673000I0J100000D01*
G01*
X51431000Y11873000D01*
G75*
G02*
X51531000Y11973000I100000J0D01*
G01*
X53031000Y11973000D01*
G75*
G02*
X53131000Y11873000I0J-100000D01*
G01*
G37*
G36*
G01*
X53131000Y11373000D02*
X53131000Y11173000D01*
G75*
G02*
X53031000Y11073000I-100000J0D01*
G01*
X51531000Y11073000D01*
G75*
G02*
X51431000Y11173000I0J100000D01*
G01*
X51431000Y11373000D01*
G75*
G02*
X51531000Y11473000I100000J0D01*
G01*
X53031000Y11473000D01*
G75*
G02*
X53131000Y11373000I0J-100000D01*
G01*
G37*
G36*
G01*
X53131000Y10873000D02*
X53131000Y10673000D01*
G75*
G02*
X53031000Y10573000I-100000J0D01*
G01*
X51531000Y10573000D01*
G75*
G02*
X51431000Y10673000I0J100000D01*
G01*
X51431000Y10873000D01*
G75*
G02*
X51531000Y10973000I100000J0D01*
G01*
X53031000Y10973000D01*
G75*
G02*
X53131000Y10873000I0J-100000D01*
G01*
G37*
G36*
G01*
X53131000Y10373000D02*
X53131000Y10173000D01*
G75*
G02*
X53031000Y10073000I-100000J0D01*
G01*
X51531000Y10073000D01*
G75*
G02*
X51431000Y10173000I0J100000D01*
G01*
X51431000Y10373000D01*
G75*
G02*
X51531000Y10473000I100000J0D01*
G01*
X53031000Y10473000D01*
G75*
G02*
X53131000Y10373000I0J-100000D01*
G01*
G37*
G36*
G01*
X53131000Y9873000D02*
X53131000Y9673000D01*
G75*
G02*
X53031000Y9573000I-100000J0D01*
G01*
X51531000Y9573000D01*
G75*
G02*
X51431000Y9673000I0J100000D01*
G01*
X51431000Y9873000D01*
G75*
G02*
X51531000Y9973000I100000J0D01*
G01*
X53031000Y9973000D01*
G75*
G02*
X53131000Y9873000I0J-100000D01*
G01*
G37*
G36*
G01*
X53131000Y9373000D02*
X53131000Y9173000D01*
G75*
G02*
X53031000Y9073000I-100000J0D01*
G01*
X51531000Y9073000D01*
G75*
G02*
X51431000Y9173000I0J100000D01*
G01*
X51431000Y9373000D01*
G75*
G02*
X51531000Y9473000I100000J0D01*
G01*
X53031000Y9473000D01*
G75*
G02*
X53131000Y9373000I0J-100000D01*
G01*
G37*
G36*
G01*
X53131000Y8873000D02*
X53131000Y8673000D01*
G75*
G02*
X53031000Y8573000I-100000J0D01*
G01*
X51531000Y8573000D01*
G75*
G02*
X51431000Y8673000I0J100000D01*
G01*
X51431000Y8873000D01*
G75*
G02*
X51531000Y8973000I100000J0D01*
G01*
X53031000Y8973000D01*
G75*
G02*
X53131000Y8873000I0J-100000D01*
G01*
G37*
G36*
G01*
X53131000Y8373000D02*
X53131000Y8173000D01*
G75*
G02*
X53031000Y8073000I-100000J0D01*
G01*
X51531000Y8073000D01*
G75*
G02*
X51431000Y8173000I0J100000D01*
G01*
X51431000Y8373000D01*
G75*
G02*
X51531000Y8473000I100000J0D01*
G01*
X53031000Y8473000D01*
G75*
G02*
X53131000Y8373000I0J-100000D01*
G01*
G37*
G36*
G01*
X53131000Y7873000D02*
X53131000Y7673000D01*
G75*
G02*
X53031000Y7573000I-100000J0D01*
G01*
X51531000Y7573000D01*
G75*
G02*
X51431000Y7673000I0J100000D01*
G01*
X51431000Y7873000D01*
G75*
G02*
X51531000Y7973000I100000J0D01*
G01*
X53031000Y7973000D01*
G75*
G02*
X53131000Y7873000I0J-100000D01*
G01*
G37*
G36*
G01*
X53131000Y7373000D02*
X53131000Y7173000D01*
G75*
G02*
X53031000Y7073000I-100000J0D01*
G01*
X51531000Y7073000D01*
G75*
G02*
X51431000Y7173000I0J100000D01*
G01*
X51431000Y7373000D01*
G75*
G02*
X51531000Y7473000I100000J0D01*
G01*
X53031000Y7473000D01*
G75*
G02*
X53131000Y7373000I0J-100000D01*
G01*
G37*
G36*
G01*
X53131000Y6873000D02*
X53131000Y6673000D01*
G75*
G02*
X53031000Y6573000I-100000J0D01*
G01*
X51531000Y6573000D01*
G75*
G02*
X51431000Y6673000I0J100000D01*
G01*
X51431000Y6873000D01*
G75*
G02*
X51531000Y6973000I100000J0D01*
G01*
X53031000Y6973000D01*
G75*
G02*
X53131000Y6873000I0J-100000D01*
G01*
G37*
G36*
G01*
X53131000Y6373000D02*
X53131000Y6173000D01*
G75*
G02*
X53031000Y6073000I-100000J0D01*
G01*
X51531000Y6073000D01*
G75*
G02*
X51431000Y6173000I0J100000D01*
G01*
X51431000Y6373000D01*
G75*
G02*
X51531000Y6473000I100000J0D01*
G01*
X53031000Y6473000D01*
G75*
G02*
X53131000Y6373000I0J-100000D01*
G01*
G37*
G36*
G01*
X53131000Y5873000D02*
X53131000Y5673000D01*
G75*
G02*
X53031000Y5573000I-100000J0D01*
G01*
X51531000Y5573000D01*
G75*
G02*
X51431000Y5673000I0J100000D01*
G01*
X51431000Y5873000D01*
G75*
G02*
X51531000Y5973000I100000J0D01*
G01*
X53031000Y5973000D01*
G75*
G02*
X53131000Y5873000I0J-100000D01*
G01*
G37*
G36*
G01*
X53131000Y5373000D02*
X53131000Y5173000D01*
G75*
G02*
X53031000Y5073000I-100000J0D01*
G01*
X51531000Y5073000D01*
G75*
G02*
X51431000Y5173000I0J100000D01*
G01*
X51431000Y5373000D01*
G75*
G02*
X51531000Y5473000I100000J0D01*
G01*
X53031000Y5473000D01*
G75*
G02*
X53131000Y5373000I0J-100000D01*
G01*
G37*
G36*
G01*
X53131000Y4873000D02*
X53131000Y4673000D01*
G75*
G02*
X53031000Y4573000I-100000J0D01*
G01*
X51531000Y4573000D01*
G75*
G02*
X51431000Y4673000I0J100000D01*
G01*
X51431000Y4873000D01*
G75*
G02*
X51531000Y4973000I100000J0D01*
G01*
X53031000Y4973000D01*
G75*
G02*
X53131000Y4873000I0J-100000D01*
G01*
G37*
G36*
G01*
X53131000Y4373000D02*
X53131000Y4173000D01*
G75*
G02*
X53031000Y4073000I-100000J0D01*
G01*
X51531000Y4073000D01*
G75*
G02*
X51431000Y4173000I0J100000D01*
G01*
X51431000Y4373000D01*
G75*
G02*
X51531000Y4473000I100000J0D01*
G01*
X53031000Y4473000D01*
G75*
G02*
X53131000Y4373000I0J-100000D01*
G01*
G37*
G36*
G01*
X53131000Y3873000D02*
X53131000Y3673000D01*
G75*
G02*
X53031000Y3573000I-100000J0D01*
G01*
X51531000Y3573000D01*
G75*
G02*
X51431000Y3673000I0J100000D01*
G01*
X51431000Y3873000D01*
G75*
G02*
X51531000Y3973000I100000J0D01*
G01*
X53031000Y3973000D01*
G75*
G02*
X53131000Y3873000I0J-100000D01*
G01*
G37*
G36*
G01*
X54156000Y2848000D02*
X54156000Y1348000D01*
G75*
G02*
X54056000Y1248000I-100000J0D01*
G01*
X53856000Y1248000D01*
G75*
G02*
X53756000Y1348000I0J100000D01*
G01*
X53756000Y2848000D01*
G75*
G02*
X53856000Y2948000I100000J0D01*
G01*
X54056000Y2948000D01*
G75*
G02*
X54156000Y2848000I0J-100000D01*
G01*
G37*
G36*
G01*
X54656000Y2848000D02*
X54656000Y1348000D01*
G75*
G02*
X54556000Y1248000I-100000J0D01*
G01*
X54356000Y1248000D01*
G75*
G02*
X54256000Y1348000I0J100000D01*
G01*
X54256000Y2848000D01*
G75*
G02*
X54356000Y2948000I100000J0D01*
G01*
X54556000Y2948000D01*
G75*
G02*
X54656000Y2848000I0J-100000D01*
G01*
G37*
G36*
G01*
X55156000Y2848000D02*
X55156000Y1348000D01*
G75*
G02*
X55056000Y1248000I-100000J0D01*
G01*
X54856000Y1248000D01*
G75*
G02*
X54756000Y1348000I0J100000D01*
G01*
X54756000Y2848000D01*
G75*
G02*
X54856000Y2948000I100000J0D01*
G01*
X55056000Y2948000D01*
G75*
G02*
X55156000Y2848000I0J-100000D01*
G01*
G37*
G36*
G01*
X55656000Y2848000D02*
X55656000Y1348000D01*
G75*
G02*
X55556000Y1248000I-100000J0D01*
G01*
X55356000Y1248000D01*
G75*
G02*
X55256000Y1348000I0J100000D01*
G01*
X55256000Y2848000D01*
G75*
G02*
X55356000Y2948000I100000J0D01*
G01*
X55556000Y2948000D01*
G75*
G02*
X55656000Y2848000I0J-100000D01*
G01*
G37*
G36*
G01*
X56156000Y2848000D02*
X56156000Y1348000D01*
G75*
G02*
X56056000Y1248000I-100000J0D01*
G01*
X55856000Y1248000D01*
G75*
G02*
X55756000Y1348000I0J100000D01*
G01*
X55756000Y2848000D01*
G75*
G02*
X55856000Y2948000I100000J0D01*
G01*
X56056000Y2948000D01*
G75*
G02*
X56156000Y2848000I0J-100000D01*
G01*
G37*
G36*
G01*
X56656000Y2848000D02*
X56656000Y1348000D01*
G75*
G02*
X56556000Y1248000I-100000J0D01*
G01*
X56356000Y1248000D01*
G75*
G02*
X56256000Y1348000I0J100000D01*
G01*
X56256000Y2848000D01*
G75*
G02*
X56356000Y2948000I100000J0D01*
G01*
X56556000Y2948000D01*
G75*
G02*
X56656000Y2848000I0J-100000D01*
G01*
G37*
G36*
G01*
X57156000Y2848000D02*
X57156000Y1348000D01*
G75*
G02*
X57056000Y1248000I-100000J0D01*
G01*
X56856000Y1248000D01*
G75*
G02*
X56756000Y1348000I0J100000D01*
G01*
X56756000Y2848000D01*
G75*
G02*
X56856000Y2948000I100000J0D01*
G01*
X57056000Y2948000D01*
G75*
G02*
X57156000Y2848000I0J-100000D01*
G01*
G37*
G36*
G01*
X57656000Y2848000D02*
X57656000Y1348000D01*
G75*
G02*
X57556000Y1248000I-100000J0D01*
G01*
X57356000Y1248000D01*
G75*
G02*
X57256000Y1348000I0J100000D01*
G01*
X57256000Y2848000D01*
G75*
G02*
X57356000Y2948000I100000J0D01*
G01*
X57556000Y2948000D01*
G75*
G02*
X57656000Y2848000I0J-100000D01*
G01*
G37*
G36*
G01*
X58156000Y2848000D02*
X58156000Y1348000D01*
G75*
G02*
X58056000Y1248000I-100000J0D01*
G01*
X57856000Y1248000D01*
G75*
G02*
X57756000Y1348000I0J100000D01*
G01*
X57756000Y2848000D01*
G75*
G02*
X57856000Y2948000I100000J0D01*
G01*
X58056000Y2948000D01*
G75*
G02*
X58156000Y2848000I0J-100000D01*
G01*
G37*
G36*
G01*
X58656000Y2848000D02*
X58656000Y1348000D01*
G75*
G02*
X58556000Y1248000I-100000J0D01*
G01*
X58356000Y1248000D01*
G75*
G02*
X58256000Y1348000I0J100000D01*
G01*
X58256000Y2848000D01*
G75*
G02*
X58356000Y2948000I100000J0D01*
G01*
X58556000Y2948000D01*
G75*
G02*
X58656000Y2848000I0J-100000D01*
G01*
G37*
G36*
G01*
X59156000Y2848000D02*
X59156000Y1348000D01*
G75*
G02*
X59056000Y1248000I-100000J0D01*
G01*
X58856000Y1248000D01*
G75*
G02*
X58756000Y1348000I0J100000D01*
G01*
X58756000Y2848000D01*
G75*
G02*
X58856000Y2948000I100000J0D01*
G01*
X59056000Y2948000D01*
G75*
G02*
X59156000Y2848000I0J-100000D01*
G01*
G37*
G36*
G01*
X59656000Y2848000D02*
X59656000Y1348000D01*
G75*
G02*
X59556000Y1248000I-100000J0D01*
G01*
X59356000Y1248000D01*
G75*
G02*
X59256000Y1348000I0J100000D01*
G01*
X59256000Y2848000D01*
G75*
G02*
X59356000Y2948000I100000J0D01*
G01*
X59556000Y2948000D01*
G75*
G02*
X59656000Y2848000I0J-100000D01*
G01*
G37*
G36*
G01*
X60156000Y2848000D02*
X60156000Y1348000D01*
G75*
G02*
X60056000Y1248000I-100000J0D01*
G01*
X59856000Y1248000D01*
G75*
G02*
X59756000Y1348000I0J100000D01*
G01*
X59756000Y2848000D01*
G75*
G02*
X59856000Y2948000I100000J0D01*
G01*
X60056000Y2948000D01*
G75*
G02*
X60156000Y2848000I0J-100000D01*
G01*
G37*
G36*
G01*
X60656000Y2848000D02*
X60656000Y1348000D01*
G75*
G02*
X60556000Y1248000I-100000J0D01*
G01*
X60356000Y1248000D01*
G75*
G02*
X60256000Y1348000I0J100000D01*
G01*
X60256000Y2848000D01*
G75*
G02*
X60356000Y2948000I100000J0D01*
G01*
X60556000Y2948000D01*
G75*
G02*
X60656000Y2848000I0J-100000D01*
G01*
G37*
G36*
G01*
X61156000Y2848000D02*
X61156000Y1348000D01*
G75*
G02*
X61056000Y1248000I-100000J0D01*
G01*
X60856000Y1248000D01*
G75*
G02*
X60756000Y1348000I0J100000D01*
G01*
X60756000Y2848000D01*
G75*
G02*
X60856000Y2948000I100000J0D01*
G01*
X61056000Y2948000D01*
G75*
G02*
X61156000Y2848000I0J-100000D01*
G01*
G37*
G36*
G01*
X61656000Y2848000D02*
X61656000Y1348000D01*
G75*
G02*
X61556000Y1248000I-100000J0D01*
G01*
X61356000Y1248000D01*
G75*
G02*
X61256000Y1348000I0J100000D01*
G01*
X61256000Y2848000D01*
G75*
G02*
X61356000Y2948000I100000J0D01*
G01*
X61556000Y2948000D01*
G75*
G02*
X61656000Y2848000I0J-100000D01*
G01*
G37*
G36*
G01*
X62156000Y2848000D02*
X62156000Y1348000D01*
G75*
G02*
X62056000Y1248000I-100000J0D01*
G01*
X61856000Y1248000D01*
G75*
G02*
X61756000Y1348000I0J100000D01*
G01*
X61756000Y2848000D01*
G75*
G02*
X61856000Y2948000I100000J0D01*
G01*
X62056000Y2948000D01*
G75*
G02*
X62156000Y2848000I0J-100000D01*
G01*
G37*
G36*
G01*
X62656000Y2848000D02*
X62656000Y1348000D01*
G75*
G02*
X62556000Y1248000I-100000J0D01*
G01*
X62356000Y1248000D01*
G75*
G02*
X62256000Y1348000I0J100000D01*
G01*
X62256000Y2848000D01*
G75*
G02*
X62356000Y2948000I100000J0D01*
G01*
X62556000Y2948000D01*
G75*
G02*
X62656000Y2848000I0J-100000D01*
G01*
G37*
G36*
G01*
X63156000Y2848000D02*
X63156000Y1348000D01*
G75*
G02*
X63056000Y1248000I-100000J0D01*
G01*
X62856000Y1248000D01*
G75*
G02*
X62756000Y1348000I0J100000D01*
G01*
X62756000Y2848000D01*
G75*
G02*
X62856000Y2948000I100000J0D01*
G01*
X63056000Y2948000D01*
G75*
G02*
X63156000Y2848000I0J-100000D01*
G01*
G37*
G36*
G01*
X63656000Y2848000D02*
X63656000Y1348000D01*
G75*
G02*
X63556000Y1248000I-100000J0D01*
G01*
X63356000Y1248000D01*
G75*
G02*
X63256000Y1348000I0J100000D01*
G01*
X63256000Y2848000D01*
G75*
G02*
X63356000Y2948000I100000J0D01*
G01*
X63556000Y2948000D01*
G75*
G02*
X63656000Y2848000I0J-100000D01*
G01*
G37*
G36*
G01*
X64156000Y2848000D02*
X64156000Y1348000D01*
G75*
G02*
X64056000Y1248000I-100000J0D01*
G01*
X63856000Y1248000D01*
G75*
G02*
X63756000Y1348000I0J100000D01*
G01*
X63756000Y2848000D01*
G75*
G02*
X63856000Y2948000I100000J0D01*
G01*
X64056000Y2948000D01*
G75*
G02*
X64156000Y2848000I0J-100000D01*
G01*
G37*
G36*
G01*
X64656000Y2848000D02*
X64656000Y1348000D01*
G75*
G02*
X64556000Y1248000I-100000J0D01*
G01*
X64356000Y1248000D01*
G75*
G02*
X64256000Y1348000I0J100000D01*
G01*
X64256000Y2848000D01*
G75*
G02*
X64356000Y2948000I100000J0D01*
G01*
X64556000Y2948000D01*
G75*
G02*
X64656000Y2848000I0J-100000D01*
G01*
G37*
G36*
G01*
X65156000Y2848000D02*
X65156000Y1348000D01*
G75*
G02*
X65056000Y1248000I-100000J0D01*
G01*
X64856000Y1248000D01*
G75*
G02*
X64756000Y1348000I0J100000D01*
G01*
X64756000Y2848000D01*
G75*
G02*
X64856000Y2948000I100000J0D01*
G01*
X65056000Y2948000D01*
G75*
G02*
X65156000Y2848000I0J-100000D01*
G01*
G37*
G36*
G01*
X65656000Y2848000D02*
X65656000Y1348000D01*
G75*
G02*
X65556000Y1248000I-100000J0D01*
G01*
X65356000Y1248000D01*
G75*
G02*
X65256000Y1348000I0J100000D01*
G01*
X65256000Y2848000D01*
G75*
G02*
X65356000Y2948000I100000J0D01*
G01*
X65556000Y2948000D01*
G75*
G02*
X65656000Y2848000I0J-100000D01*
G01*
G37*
G36*
G01*
X66156000Y2848000D02*
X66156000Y1348000D01*
G75*
G02*
X66056000Y1248000I-100000J0D01*
G01*
X65856000Y1248000D01*
G75*
G02*
X65756000Y1348000I0J100000D01*
G01*
X65756000Y2848000D01*
G75*
G02*
X65856000Y2948000I100000J0D01*
G01*
X66056000Y2948000D01*
G75*
G02*
X66156000Y2848000I0J-100000D01*
G01*
G37*
%TD*%
%TO.C,C1*%
G36*
G01*
X31109500Y243544D02*
X31109500Y2458456D01*
G75*
G02*
X31377044Y2726000I267544J0D01*
G01*
X32366956Y2726000D01*
G75*
G02*
X32634500Y2458456I0J-267544D01*
G01*
X32634500Y243544D01*
G75*
G02*
X32366956Y-24000I-267544J0D01*
G01*
X31377044Y-24000D01*
G75*
G02*
X31109500Y243544I0J267544D01*
G01*
G37*
G36*
G01*
X28134500Y243544D02*
X28134500Y2458456D01*
G75*
G02*
X28402044Y2726000I267544J0D01*
G01*
X29391956Y2726000D01*
G75*
G02*
X29659500Y2458456I0J-267544D01*
G01*
X29659500Y243544D01*
G75*
G02*
X29391956Y-24000I-267544J0D01*
G01*
X28402044Y-24000D01*
G75*
G02*
X28134500Y243544I0J267544D01*
G01*
G37*
%TD*%
%TO.C,C2*%
G36*
G01*
X34589544Y5913500D02*
X36804456Y5913500D01*
G75*
G02*
X37072000Y5645956I0J-267544D01*
G01*
X37072000Y4656044D01*
G75*
G02*
X36804456Y4388500I-267544J0D01*
G01*
X34589544Y4388500D01*
G75*
G02*
X34322000Y4656044I0J267544D01*
G01*
X34322000Y5645956D01*
G75*
G02*
X34589544Y5913500I267544J0D01*
G01*
G37*
G36*
G01*
X34589544Y8888500D02*
X36804456Y8888500D01*
G75*
G02*
X37072000Y8620956I0J-267544D01*
G01*
X37072000Y7631044D01*
G75*
G02*
X36804456Y7363500I-267544J0D01*
G01*
X34589544Y7363500D01*
G75*
G02*
X34322000Y7631044I0J267544D01*
G01*
X34322000Y8620956D01*
G75*
G02*
X34589544Y8888500I267544J0D01*
G01*
G37*
%TD*%
%TO.C,C3*%
G36*
G01*
X49159000Y11541500D02*
X49159000Y11016500D01*
G75*
G02*
X48896500Y10754000I-262500J0D01*
G01*
X48271500Y10754000D01*
G75*
G02*
X48009000Y11016500I0J262500D01*
G01*
X48009000Y11541500D01*
G75*
G02*
X48271500Y11804000I262500J0D01*
G01*
X48896500Y11804000D01*
G75*
G02*
X49159000Y11541500I0J-262500D01*
G01*
G37*
G36*
G01*
X47409000Y11541500D02*
X47409000Y11016500D01*
G75*
G02*
X47146500Y10754000I-262500J0D01*
G01*
X46521500Y10754000D01*
G75*
G02*
X46259000Y11016500I0J262500D01*
G01*
X46259000Y11541500D01*
G75*
G02*
X46521500Y11804000I262500J0D01*
G01*
X47146500Y11804000D01*
G75*
G02*
X47409000Y11541500I0J-262500D01*
G01*
G37*
%TD*%
%TO.C,C4*%
G36*
G01*
X27207000Y17648500D02*
X27207000Y18173500D01*
G75*
G02*
X27469500Y18436000I262500J0D01*
G01*
X28094500Y18436000D01*
G75*
G02*
X28357000Y18173500I0J-262500D01*
G01*
X28357000Y17648500D01*
G75*
G02*
X28094500Y17386000I-262500J0D01*
G01*
X27469500Y17386000D01*
G75*
G02*
X27207000Y17648500I0J262500D01*
G01*
G37*
G36*
G01*
X28957000Y17648500D02*
X28957000Y18173500D01*
G75*
G02*
X29219500Y18436000I262500J0D01*
G01*
X29844500Y18436000D01*
G75*
G02*
X30107000Y18173500I0J-262500D01*
G01*
X30107000Y17648500D01*
G75*
G02*
X29844500Y17386000I-262500J0D01*
G01*
X29219500Y17386000D01*
G75*
G02*
X28957000Y17648500I0J262500D01*
G01*
G37*
%TD*%
%TO.C,C5*%
G36*
G01*
X28957000Y14473500D02*
X28957000Y14998500D01*
G75*
G02*
X29219500Y15261000I262500J0D01*
G01*
X29844500Y15261000D01*
G75*
G02*
X30107000Y14998500I0J-262500D01*
G01*
X30107000Y14473500D01*
G75*
G02*
X29844500Y14211000I-262500J0D01*
G01*
X29219500Y14211000D01*
G75*
G02*
X28957000Y14473500I0J262500D01*
G01*
G37*
G36*
G01*
X27207000Y14473500D02*
X27207000Y14998500D01*
G75*
G02*
X27469500Y15261000I262500J0D01*
G01*
X28094500Y15261000D01*
G75*
G02*
X28357000Y14998500I0J-262500D01*
G01*
X28357000Y14473500D01*
G75*
G02*
X28094500Y14211000I-262500J0D01*
G01*
X27469500Y14211000D01*
G75*
G02*
X27207000Y14473500I0J262500D01*
G01*
G37*
%TD*%
%TO.C,C6*%
G36*
G01*
X63701000Y20565500D02*
X63701000Y21090500D01*
G75*
G02*
X63963500Y21353000I262500J0D01*
G01*
X64588500Y21353000D01*
G75*
G02*
X64851000Y21090500I0J-262500D01*
G01*
X64851000Y20565500D01*
G75*
G02*
X64588500Y20303000I-262500J0D01*
G01*
X63963500Y20303000D01*
G75*
G02*
X63701000Y20565500I0J262500D01*
G01*
G37*
G36*
G01*
X65451000Y20565500D02*
X65451000Y21090500D01*
G75*
G02*
X65713500Y21353000I262500J0D01*
G01*
X66338500Y21353000D01*
G75*
G02*
X66601000Y21090500I0J-262500D01*
G01*
X66601000Y20565500D01*
G75*
G02*
X66338500Y20303000I-262500J0D01*
G01*
X65713500Y20303000D01*
G75*
G02*
X65451000Y20565500I0J262500D01*
G01*
G37*
%TD*%
%TO.C,C7*%
G36*
G01*
X71365500Y7193000D02*
X71890500Y7193000D01*
G75*
G02*
X72153000Y6930500I0J-262500D01*
G01*
X72153000Y6305500D01*
G75*
G02*
X71890500Y6043000I-262500J0D01*
G01*
X71365500Y6043000D01*
G75*
G02*
X71103000Y6305500I0J262500D01*
G01*
X71103000Y6930500D01*
G75*
G02*
X71365500Y7193000I262500J0D01*
G01*
G37*
G36*
G01*
X71365500Y8943000D02*
X71890500Y8943000D01*
G75*
G02*
X72153000Y8680500I0J-262500D01*
G01*
X72153000Y8055500D01*
G75*
G02*
X71890500Y7793000I-262500J0D01*
G01*
X71365500Y7793000D01*
G75*
G02*
X71103000Y8055500I0J262500D01*
G01*
X71103000Y8680500D01*
G75*
G02*
X71365500Y8943000I262500J0D01*
G01*
G37*
%TD*%
%TO.C,C8*%
G36*
G01*
X49159000Y13391500D02*
X49159000Y12866500D01*
G75*
G02*
X48896500Y12604000I-262500J0D01*
G01*
X48271500Y12604000D01*
G75*
G02*
X48009000Y12866500I0J262500D01*
G01*
X48009000Y13391500D01*
G75*
G02*
X48271500Y13654000I262500J0D01*
G01*
X48896500Y13654000D01*
G75*
G02*
X49159000Y13391500I0J-262500D01*
G01*
G37*
G36*
G01*
X47409000Y13391500D02*
X47409000Y12866500D01*
G75*
G02*
X47146500Y12604000I-262500J0D01*
G01*
X46521500Y12604000D01*
G75*
G02*
X46259000Y12866500I0J262500D01*
G01*
X46259000Y13391500D01*
G75*
G02*
X46521500Y13654000I262500J0D01*
G01*
X47146500Y13654000D01*
G75*
G02*
X47409000Y13391500I0J-262500D01*
G01*
G37*
%TD*%
%TO.C,C9*%
G36*
G01*
X79980000Y7000500D02*
X79980000Y6475500D01*
G75*
G02*
X79717500Y6213000I-262500J0D01*
G01*
X79092500Y6213000D01*
G75*
G02*
X78830000Y6475500I0J262500D01*
G01*
X78830000Y7000500D01*
G75*
G02*
X79092500Y7263000I262500J0D01*
G01*
X79717500Y7263000D01*
G75*
G02*
X79980000Y7000500I0J-262500D01*
G01*
G37*
G36*
G01*
X78230000Y7000500D02*
X78230000Y6475500D01*
G75*
G02*
X77967500Y6213000I-262500J0D01*
G01*
X77342500Y6213000D01*
G75*
G02*
X77080000Y6475500I0J262500D01*
G01*
X77080000Y7000500D01*
G75*
G02*
X77342500Y7263000I262500J0D01*
G01*
X77967500Y7263000D01*
G75*
G02*
X78230000Y7000500I0J-262500D01*
G01*
G37*
%TD*%
%TO.C,C10*%
G36*
G01*
X55785000Y20692500D02*
X55785000Y21217500D01*
G75*
G02*
X56047500Y21480000I262500J0D01*
G01*
X56672500Y21480000D01*
G75*
G02*
X56935000Y21217500I0J-262500D01*
G01*
X56935000Y20692500D01*
G75*
G02*
X56672500Y20430000I-262500J0D01*
G01*
X56047500Y20430000D01*
G75*
G02*
X55785000Y20692500I0J262500D01*
G01*
G37*
G36*
G01*
X54035000Y20692500D02*
X54035000Y21217500D01*
G75*
G02*
X54297500Y21480000I262500J0D01*
G01*
X54922500Y21480000D01*
G75*
G02*
X55185000Y21217500I0J-262500D01*
G01*
X55185000Y20692500D01*
G75*
G02*
X54922500Y20430000I-262500J0D01*
G01*
X54297500Y20430000D01*
G75*
G02*
X54035000Y20692500I0J262500D01*
G01*
G37*
%TD*%
%TO.C,C11*%
G36*
G01*
X49075000Y3437500D02*
X49075000Y2912500D01*
G75*
G02*
X48812500Y2650000I-262500J0D01*
G01*
X48187500Y2650000D01*
G75*
G02*
X47925000Y2912500I0J262500D01*
G01*
X47925000Y3437500D01*
G75*
G02*
X48187500Y3700000I262500J0D01*
G01*
X48812500Y3700000D01*
G75*
G02*
X49075000Y3437500I0J-262500D01*
G01*
G37*
G36*
G01*
X47325000Y3437500D02*
X47325000Y2912500D01*
G75*
G02*
X47062500Y2650000I-262500J0D01*
G01*
X46437500Y2650000D01*
G75*
G02*
X46175000Y2912500I0J262500D01*
G01*
X46175000Y3437500D01*
G75*
G02*
X46437500Y3700000I262500J0D01*
G01*
X47062500Y3700000D01*
G75*
G02*
X47325000Y3437500I0J-262500D01*
G01*
G37*
%TD*%
%TO.C,C12*%
G36*
G01*
X74236000Y17425500D02*
X74236000Y17950500D01*
G75*
G02*
X74498500Y18213000I262500J0D01*
G01*
X75123500Y18213000D01*
G75*
G02*
X75386000Y17950500I0J-262500D01*
G01*
X75386000Y17425500D01*
G75*
G02*
X75123500Y17163000I-262500J0D01*
G01*
X74498500Y17163000D01*
G75*
G02*
X74236000Y17425500I0J262500D01*
G01*
G37*
G36*
G01*
X72486000Y17425500D02*
X72486000Y17950500D01*
G75*
G02*
X72748500Y18213000I262500J0D01*
G01*
X73373500Y18213000D01*
G75*
G02*
X73636000Y17950500I0J-262500D01*
G01*
X73636000Y17425500D01*
G75*
G02*
X73373500Y17163000I-262500J0D01*
G01*
X72748500Y17163000D01*
G75*
G02*
X72486000Y17425500I0J262500D01*
G01*
G37*
%TD*%
%TO.C,C13*%
G36*
G01*
X78957000Y15492500D02*
X78957000Y16017500D01*
G75*
G02*
X79219500Y16280000I262500J0D01*
G01*
X79844500Y16280000D01*
G75*
G02*
X80107000Y16017500I0J-262500D01*
G01*
X80107000Y15492500D01*
G75*
G02*
X79844500Y15230000I-262500J0D01*
G01*
X79219500Y15230000D01*
G75*
G02*
X78957000Y15492500I0J262500D01*
G01*
G37*
G36*
G01*
X77207000Y15492500D02*
X77207000Y16017500D01*
G75*
G02*
X77469500Y16280000I262500J0D01*
G01*
X78094500Y16280000D01*
G75*
G02*
X78357000Y16017500I0J-262500D01*
G01*
X78357000Y15492500D01*
G75*
G02*
X78094500Y15230000I-262500J0D01*
G01*
X77469500Y15230000D01*
G75*
G02*
X77207000Y15492500I0J262500D01*
G01*
G37*
%TD*%
D10*
%TO.C,D1*%
X25858000Y-9598000D03*
D11*
X33478000Y-9598000D03*
%TD*%
D10*
%TO.C,D2*%
X37238000Y-9598000D03*
D11*
X44858000Y-9598000D03*
%TD*%
%TO.C,D3*%
X56238000Y-9598000D03*
D10*
X48618000Y-9598000D03*
%TD*%
D11*
%TO.C,D4*%
X67618000Y-9598000D03*
D10*
X59998000Y-9598000D03*
%TD*%
D11*
%TO.C,D5*%
X28575000Y-15240000D03*
D10*
X28575000Y-22860000D03*
%TD*%
%TO.C,D6*%
X34290000Y-28575000D03*
D11*
X41910000Y-28575000D03*
%TD*%
%TO.C,D7*%
X60120000Y-28598000D03*
D10*
X52500000Y-28598000D03*
%TD*%
%TO.C,D8*%
X66675000Y-22860000D03*
D11*
X66675000Y-15240000D03*
%TD*%
D10*
%TO.C,D9*%
X25858000Y-47598000D03*
D11*
X33478000Y-47598000D03*
%TD*%
%TO.C,D10*%
X44858000Y-47598000D03*
D10*
X37238000Y-47598000D03*
%TD*%
%TO.C,D11*%
X48618000Y-47598000D03*
D11*
X56238000Y-47598000D03*
%TD*%
%TO.C,D12*%
X67618000Y-47598000D03*
D10*
X59998000Y-47598000D03*
%TD*%
%TO.C,D13*%
X28500000Y-60500000D03*
D11*
X28500000Y-52880000D03*
%TD*%
%TO.C,D14*%
X41620000Y-66598000D03*
D10*
X34000000Y-66598000D03*
%TD*%
%TO.C,D15*%
X66500000Y-60500000D03*
D11*
X66500000Y-52880000D03*
%TD*%
%TO.C,D16*%
X61120000Y-66598000D03*
D10*
X53500000Y-66598000D03*
%TD*%
D11*
%TO.C,D17*%
X28500000Y-72380000D03*
D10*
X28500000Y-80000000D03*
%TD*%
%TO.C,D18*%
X37238000Y-85598000D03*
D11*
X44858000Y-85598000D03*
%TD*%
%TO.C,D19*%
X56238000Y-85598000D03*
D10*
X48618000Y-85598000D03*
%TD*%
%TO.C,D20*%
X66500000Y-79000000D03*
D11*
X66500000Y-71380000D03*
%TD*%
%TO.C,D21*%
G36*
G01*
X71845000Y-3262500D02*
X71845000Y-3787500D01*
G75*
G02*
X71582500Y-4050000I-262500J0D01*
G01*
X70957500Y-4050000D01*
G75*
G02*
X70695000Y-3787500I0J262500D01*
G01*
X70695000Y-3262500D01*
G75*
G02*
X70957500Y-3000000I262500J0D01*
G01*
X71582500Y-3000000D01*
G75*
G02*
X71845000Y-3262500I0J-262500D01*
G01*
G37*
G36*
G01*
X73595000Y-3262500D02*
X73595000Y-3787500D01*
G75*
G02*
X73332500Y-4050000I-262500J0D01*
G01*
X72707500Y-4050000D01*
G75*
G02*
X72445000Y-3787500I0J262500D01*
G01*
X72445000Y-3262500D01*
G75*
G02*
X72707500Y-3000000I262500J0D01*
G01*
X73332500Y-3000000D01*
G75*
G02*
X73595000Y-3262500I0J-262500D01*
G01*
G37*
%TD*%
%TO.C,D22*%
G36*
G01*
X73595000Y-1337500D02*
X73595000Y-1862500D01*
G75*
G02*
X73332500Y-2125000I-262500J0D01*
G01*
X72707500Y-2125000D01*
G75*
G02*
X72445000Y-1862500I0J262500D01*
G01*
X72445000Y-1337500D01*
G75*
G02*
X72707500Y-1075000I262500J0D01*
G01*
X73332500Y-1075000D01*
G75*
G02*
X73595000Y-1337500I0J-262500D01*
G01*
G37*
G36*
G01*
X71845000Y-1337500D02*
X71845000Y-1862500D01*
G75*
G02*
X71582500Y-2125000I-262500J0D01*
G01*
X70957500Y-2125000D01*
G75*
G02*
X70695000Y-1862500I0J262500D01*
G01*
X70695000Y-1337500D01*
G75*
G02*
X70957500Y-1075000I262500J0D01*
G01*
X71582500Y-1075000D01*
G75*
G02*
X71845000Y-1337500I0J-262500D01*
G01*
G37*
%TD*%
%TO.C,D23*%
G36*
G01*
X71795000Y697500D02*
X71795000Y172500D01*
G75*
G02*
X71532500Y-90000I-262500J0D01*
G01*
X70907500Y-90000D01*
G75*
G02*
X70645000Y172500I0J262500D01*
G01*
X70645000Y697500D01*
G75*
G02*
X70907500Y960000I262500J0D01*
G01*
X71532500Y960000D01*
G75*
G02*
X71795000Y697500I0J-262500D01*
G01*
G37*
G36*
G01*
X73545000Y697500D02*
X73545000Y172500D01*
G75*
G02*
X73282500Y-90000I-262500J0D01*
G01*
X72657500Y-90000D01*
G75*
G02*
X72395000Y172500I0J262500D01*
G01*
X72395000Y697500D01*
G75*
G02*
X72657500Y960000I262500J0D01*
G01*
X73282500Y960000D01*
G75*
G02*
X73545000Y697500I0J-262500D01*
G01*
G37*
%TD*%
%TO.C,D24*%
G36*
G01*
X73545000Y2472500D02*
X73545000Y1947500D01*
G75*
G02*
X73282500Y1685000I-262500J0D01*
G01*
X72657500Y1685000D01*
G75*
G02*
X72395000Y1947500I0J262500D01*
G01*
X72395000Y2472500D01*
G75*
G02*
X72657500Y2735000I262500J0D01*
G01*
X73282500Y2735000D01*
G75*
G02*
X73545000Y2472500I0J-262500D01*
G01*
G37*
G36*
G01*
X71795000Y2472500D02*
X71795000Y1947500D01*
G75*
G02*
X71532500Y1685000I-262500J0D01*
G01*
X70907500Y1685000D01*
G75*
G02*
X70645000Y1947500I0J262500D01*
G01*
X70645000Y2472500D01*
G75*
G02*
X70907500Y2735000I262500J0D01*
G01*
X71532500Y2735000D01*
G75*
G02*
X71795000Y2472500I0J-262500D01*
G01*
G37*
%TD*%
D12*
%TO.C,H1*%
X13000000Y25000000D03*
%TD*%
%TO.C,H2*%
X82000000Y25000000D03*
%TD*%
%TO.C,H3*%
X28500000Y-85500000D03*
%TD*%
%TO.C,H4*%
X66500000Y-85500000D03*
%TD*%
%TO.C,H5*%
X47500000Y-66500000D03*
%TD*%
D13*
%TO.C,J1*%
X49920000Y22170000D03*
X41280000Y22170000D03*
D14*
X49920000Y26340000D03*
X41280000Y26340000D03*
D15*
X46350000Y21590000D03*
X45850000Y21590000D03*
X45350000Y21590000D03*
X47350000Y21590000D03*
X46850000Y21590000D03*
X44350000Y21590000D03*
X44850000Y21590000D03*
X43850000Y21590000D03*
D16*
X42710000Y22650000D03*
X48490000Y22650000D03*
D17*
X48000000Y21590000D03*
X48000000Y21590000D03*
X48800000Y21590000D03*
X48800000Y21590000D03*
X43200000Y21590000D03*
X42400000Y21590000D03*
X43200000Y21590000D03*
X42400000Y21590000D03*
%TD*%
D18*
%TO.C,J2*%
X67310000Y24130000D03*
D19*
X69850000Y24130000D03*
X72390000Y24130000D03*
X74930000Y24130000D03*
%TD*%
D18*
%TO.C,J3*%
X26670000Y-5207000D03*
D19*
X29210000Y-5207000D03*
X31750000Y-5207000D03*
X34290000Y-5207000D03*
X36830000Y-5207000D03*
%TD*%
%TO.C,R1*%
G36*
G01*
X72898500Y13438000D02*
X73423500Y13438000D01*
G75*
G02*
X73686000Y13175500I0J-262500D01*
G01*
X73686000Y12550500D01*
G75*
G02*
X73423500Y12288000I-262500J0D01*
G01*
X72898500Y12288000D01*
G75*
G02*
X72636000Y12550500I0J262500D01*
G01*
X72636000Y13175500D01*
G75*
G02*
X72898500Y13438000I262500J0D01*
G01*
G37*
G36*
G01*
X72898500Y11688000D02*
X73423500Y11688000D01*
G75*
G02*
X73686000Y11425500I0J-262500D01*
G01*
X73686000Y10800500D01*
G75*
G02*
X73423500Y10538000I-262500J0D01*
G01*
X72898500Y10538000D01*
G75*
G02*
X72636000Y10800500I0J262500D01*
G01*
X72636000Y11425500D01*
G75*
G02*
X72898500Y11688000I262500J0D01*
G01*
G37*
%TD*%
%TO.C,R2*%
G36*
G01*
X36862500Y21875000D02*
X36337500Y21875000D01*
G75*
G02*
X36075000Y22137500I0J262500D01*
G01*
X36075000Y22762500D01*
G75*
G02*
X36337500Y23025000I262500J0D01*
G01*
X36862500Y23025000D01*
G75*
G02*
X37125000Y22762500I0J-262500D01*
G01*
X37125000Y22137500D01*
G75*
G02*
X36862500Y21875000I-262500J0D01*
G01*
G37*
G36*
G01*
X36862500Y23625000D02*
X36337500Y23625000D01*
G75*
G02*
X36075000Y23887500I0J262500D01*
G01*
X36075000Y24512500D01*
G75*
G02*
X36337500Y24775000I262500J0D01*
G01*
X36862500Y24775000D01*
G75*
G02*
X37125000Y24512500I0J-262500D01*
G01*
X37125000Y23887500D01*
G75*
G02*
X36862500Y23625000I-262500J0D01*
G01*
G37*
%TD*%
%TO.C,R3*%
G36*
G01*
X75810000Y-3262500D02*
X75810000Y-3787500D01*
G75*
G02*
X75547500Y-4050000I-262500J0D01*
G01*
X74922500Y-4050000D01*
G75*
G02*
X74660000Y-3787500I0J262500D01*
G01*
X74660000Y-3262500D01*
G75*
G02*
X74922500Y-3000000I262500J0D01*
G01*
X75547500Y-3000000D01*
G75*
G02*
X75810000Y-3262500I0J-262500D01*
G01*
G37*
G36*
G01*
X77560000Y-3262500D02*
X77560000Y-3787500D01*
G75*
G02*
X77297500Y-4050000I-262500J0D01*
G01*
X76672500Y-4050000D01*
G75*
G02*
X76410000Y-3787500I0J262500D01*
G01*
X76410000Y-3262500D01*
G75*
G02*
X76672500Y-3000000I262500J0D01*
G01*
X77297500Y-3000000D01*
G75*
G02*
X77560000Y-3262500I0J-262500D01*
G01*
G37*
%TD*%
%TO.C,R4*%
G36*
G01*
X75810000Y-1337500D02*
X75810000Y-1862500D01*
G75*
G02*
X75547500Y-2125000I-262500J0D01*
G01*
X74922500Y-2125000D01*
G75*
G02*
X74660000Y-1862500I0J262500D01*
G01*
X74660000Y-1337500D01*
G75*
G02*
X74922500Y-1075000I262500J0D01*
G01*
X75547500Y-1075000D01*
G75*
G02*
X75810000Y-1337500I0J-262500D01*
G01*
G37*
G36*
G01*
X77560000Y-1337500D02*
X77560000Y-1862500D01*
G75*
G02*
X77297500Y-2125000I-262500J0D01*
G01*
X76672500Y-2125000D01*
G75*
G02*
X76410000Y-1862500I0J262500D01*
G01*
X76410000Y-1337500D01*
G75*
G02*
X76672500Y-1075000I262500J0D01*
G01*
X77297500Y-1075000D01*
G75*
G02*
X77560000Y-1337500I0J-262500D01*
G01*
G37*
%TD*%
%TO.C,R5*%
G36*
G01*
X77510000Y697500D02*
X77510000Y172500D01*
G75*
G02*
X77247500Y-90000I-262500J0D01*
G01*
X76622500Y-90000D01*
G75*
G02*
X76360000Y172500I0J262500D01*
G01*
X76360000Y697500D01*
G75*
G02*
X76622500Y960000I262500J0D01*
G01*
X77247500Y960000D01*
G75*
G02*
X77510000Y697500I0J-262500D01*
G01*
G37*
G36*
G01*
X75760000Y697500D02*
X75760000Y172500D01*
G75*
G02*
X75497500Y-90000I-262500J0D01*
G01*
X74872500Y-90000D01*
G75*
G02*
X74610000Y172500I0J262500D01*
G01*
X74610000Y697500D01*
G75*
G02*
X74872500Y960000I262500J0D01*
G01*
X75497500Y960000D01*
G75*
G02*
X75760000Y697500I0J-262500D01*
G01*
G37*
%TD*%
%TO.C,R6*%
G36*
G01*
X75760000Y2472500D02*
X75760000Y1947500D01*
G75*
G02*
X75497500Y1685000I-262500J0D01*
G01*
X74872500Y1685000D01*
G75*
G02*
X74610000Y1947500I0J262500D01*
G01*
X74610000Y2472500D01*
G75*
G02*
X74872500Y2735000I262500J0D01*
G01*
X75497500Y2735000D01*
G75*
G02*
X75760000Y2472500I0J-262500D01*
G01*
G37*
G36*
G01*
X77510000Y2472500D02*
X77510000Y1947500D01*
G75*
G02*
X77247500Y1685000I-262500J0D01*
G01*
X76622500Y1685000D01*
G75*
G02*
X76360000Y1947500I0J262500D01*
G01*
X76360000Y2472500D01*
G75*
G02*
X76622500Y2735000I262500J0D01*
G01*
X77247500Y2735000D01*
G75*
G02*
X77510000Y2472500I0J-262500D01*
G01*
G37*
%TD*%
%TO.C,R7*%
G36*
G01*
X47536000Y7100500D02*
X47536000Y6575500D01*
G75*
G02*
X47273500Y6313000I-262500J0D01*
G01*
X46648500Y6313000D01*
G75*
G02*
X46386000Y6575500I0J262500D01*
G01*
X46386000Y7100500D01*
G75*
G02*
X46648500Y7363000I262500J0D01*
G01*
X47273500Y7363000D01*
G75*
G02*
X47536000Y7100500I0J-262500D01*
G01*
G37*
G36*
G01*
X49286000Y7100500D02*
X49286000Y6575500D01*
G75*
G02*
X49023500Y6313000I-262500J0D01*
G01*
X48398500Y6313000D01*
G75*
G02*
X48136000Y6575500I0J262500D01*
G01*
X48136000Y7100500D01*
G75*
G02*
X48398500Y7363000I262500J0D01*
G01*
X49023500Y7363000D01*
G75*
G02*
X49286000Y7100500I0J-262500D01*
G01*
G37*
%TD*%
%TO.C,R8*%
G36*
G01*
X49286000Y5350500D02*
X49286000Y4825500D01*
G75*
G02*
X49023500Y4563000I-262500J0D01*
G01*
X48398500Y4563000D01*
G75*
G02*
X48136000Y4825500I0J262500D01*
G01*
X48136000Y5350500D01*
G75*
G02*
X48398500Y5613000I262500J0D01*
G01*
X49023500Y5613000D01*
G75*
G02*
X49286000Y5350500I0J-262500D01*
G01*
G37*
G36*
G01*
X47536000Y5350500D02*
X47536000Y4825500D01*
G75*
G02*
X47273500Y4563000I-262500J0D01*
G01*
X46648500Y4563000D01*
G75*
G02*
X46386000Y4825500I0J262500D01*
G01*
X46386000Y5350500D01*
G75*
G02*
X46648500Y5613000I262500J0D01*
G01*
X47273500Y5613000D01*
G75*
G02*
X47536000Y5350500I0J-262500D01*
G01*
G37*
%TD*%
D20*
%TO.C,SW1*%
X21540000Y-13920000D03*
X15190000Y-16460000D03*
D21*
X19000000Y-19000000D03*
D22*
X13920000Y-19000000D03*
X24080000Y-19000000D03*
%TD*%
D20*
%TO.C,SW2*%
X40540000Y-13920000D03*
X34190000Y-16460000D03*
D21*
X38000000Y-19000000D03*
D22*
X32920000Y-19000000D03*
X43080000Y-19000000D03*
%TD*%
D20*
%TO.C,SW3*%
X59540000Y-13920000D03*
X53190000Y-16460000D03*
D21*
X57000000Y-19000000D03*
D22*
X51920000Y-19000000D03*
X62080000Y-19000000D03*
%TD*%
D20*
%TO.C,SW4*%
X78540000Y-13920000D03*
X72190000Y-16460000D03*
D21*
X76000000Y-19000000D03*
D22*
X70920000Y-19000000D03*
X81080000Y-19000000D03*
%TD*%
%TO.C,SW5*%
X24080000Y-38000000D03*
X13920000Y-38000000D03*
D21*
X19000000Y-38000000D03*
D20*
X15190000Y-35460000D03*
X21540000Y-32920000D03*
%TD*%
%TO.C,SW6*%
X40540000Y-32920000D03*
X34190000Y-35460000D03*
D21*
X38000000Y-38000000D03*
D22*
X32920000Y-38000000D03*
X43080000Y-38000000D03*
%TD*%
%TO.C,SW7*%
X62080000Y-38000000D03*
X51920000Y-38000000D03*
D21*
X57000000Y-38000000D03*
D20*
X53190000Y-35460000D03*
X59540000Y-32920000D03*
%TD*%
%TO.C,SW8*%
X78540000Y-32920000D03*
X72190000Y-35460000D03*
D21*
X76000000Y-38000000D03*
D22*
X70920000Y-38000000D03*
X81080000Y-38000000D03*
%TD*%
%TO.C,SW9*%
X24080000Y-57000000D03*
X13920000Y-57000000D03*
D21*
X19000000Y-57000000D03*
D20*
X15190000Y-54460000D03*
X21540000Y-51920000D03*
%TD*%
D22*
%TO.C,SW10*%
X43080000Y-57000000D03*
X32920000Y-57000000D03*
D21*
X38000000Y-57000000D03*
D20*
X34190000Y-54460000D03*
X40540000Y-51920000D03*
%TD*%
D22*
%TO.C,SW11*%
X62080000Y-57000000D03*
X51920000Y-57000000D03*
D21*
X57000000Y-57000000D03*
D20*
X53190000Y-54460000D03*
X59540000Y-51920000D03*
%TD*%
D22*
%TO.C,SW12*%
X81080000Y-57000000D03*
X70920000Y-57000000D03*
D21*
X76000000Y-57000000D03*
D20*
X72190000Y-54460000D03*
X78540000Y-51920000D03*
%TD*%
D22*
%TO.C,SW13*%
X24080000Y-76000000D03*
X13920000Y-76000000D03*
D21*
X19000000Y-76000000D03*
D20*
X15190000Y-73460000D03*
X21540000Y-70920000D03*
%TD*%
%TO.C,SW14*%
X40540000Y-70920000D03*
X34190000Y-73460000D03*
D21*
X38000000Y-76000000D03*
D22*
X32920000Y-76000000D03*
X43080000Y-76000000D03*
%TD*%
D20*
%TO.C,SW15*%
X59540000Y-70920000D03*
X53190000Y-73460000D03*
D21*
X57000000Y-76000000D03*
D22*
X51920000Y-76000000D03*
X62080000Y-76000000D03*
%TD*%
D20*
%TO.C,SW16*%
X78540000Y-70920000D03*
X72190000Y-73460000D03*
D21*
X76000000Y-76000000D03*
D22*
X70920000Y-76000000D03*
X81080000Y-76000000D03*
%TD*%
D20*
%TO.C,SW17*%
X21540000Y-89920000D03*
X15190000Y-92460000D03*
D21*
X19000000Y-95000000D03*
D22*
X13920000Y-95000000D03*
X24080000Y-95000000D03*
%TD*%
%TO.C,SW18*%
X43080000Y-95000000D03*
X32920000Y-95000000D03*
D21*
X38000000Y-95000000D03*
D20*
X34190000Y-92460000D03*
X40540000Y-89920000D03*
%TD*%
D22*
%TO.C,SW19*%
X62080000Y-95000000D03*
X51920000Y-95000000D03*
D21*
X57000000Y-95000000D03*
D20*
X53190000Y-92460000D03*
X59540000Y-89920000D03*
%TD*%
D22*
%TO.C,SW20*%
X81080000Y-95000000D03*
X70920000Y-95000000D03*
D21*
X76000000Y-95000000D03*
D20*
X72190000Y-92460000D03*
X78540000Y-89920000D03*
%TD*%
D23*
%TO.C,U1*%
X25697000Y7351000D03*
D24*
X31997000Y7351000D03*
X31997000Y9651000D03*
X31997000Y5051000D03*
%TD*%
D25*
%TO.C,U3*%
X39286000Y18222000D03*
X39286000Y17272000D03*
X39286000Y16322000D03*
X41486000Y16322000D03*
X41486000Y18222000D03*
X41486000Y17272000D03*
%TD*%
D26*
%TO.C,Y1*%
X79574000Y9659000D03*
X79574000Y12559000D03*
X77274000Y12559000D03*
X77274000Y9659000D03*
%TD*%
D27*
%TO.C,J4*%
X17200000Y-2540000D03*
D28*
X17200000Y-540000D03*
%TD*%
%TO.C,J5*%
X82300000Y-540000D03*
D27*
X82300000Y-2540000D03*
%TD*%
D28*
%TO.C,J6*%
X17250000Y-5620000D03*
D27*
X17250000Y-7620000D03*
%TD*%
%TO.C,J7*%
X82500000Y-7620000D03*
D28*
X82500000Y-5620000D03*
%TD*%
M02*
