%TF.GenerationSoftware,KiCad,Pcbnew,(5.1.6)-1*%
%TF.CreationDate,2021-03-02T19:52:56+09:00*%
%TF.ProjectId,Keypad4x4,4b657970-6164-4347-9834-2e6b69636164,rev?*%
%TF.SameCoordinates,Original*%
%TF.FileFunction,Legend,Top*%
%TF.FilePolarity,Positive*%
%FSLAX46Y46*%
G04 Gerber Fmt 4.6, Leading zero omitted, Abs format (unit mm)*
G04 Created by KiCad (PCBNEW (5.1.6)-1) date 2021-03-02 19:52:56*
%MOMM*%
%LPD*%
G01*
G04 APERTURE LIST*
%ADD10C,0.150000*%
%ADD11C,0.120000*%
G04 APERTURE END LIST*
D10*
X66809523Y26797619D02*
X66333333Y26797619D01*
X66285714Y26321428D01*
X66333333Y26369047D01*
X66428571Y26416666D01*
X66666666Y26416666D01*
X66761904Y26369047D01*
X66809523Y26321428D01*
X66857142Y26226190D01*
X66857142Y25988095D01*
X66809523Y25892857D01*
X66761904Y25845238D01*
X66666666Y25797619D01*
X66428571Y25797619D01*
X66333333Y25845238D01*
X66285714Y25892857D01*
X67142857Y26797619D02*
X67476190Y25797619D01*
X67809523Y26797619D01*
X68761904Y26797619D02*
X69333333Y26797619D01*
X69047619Y25797619D02*
X69047619Y26797619D01*
X69571428Y26797619D02*
X70238095Y25797619D01*
X70238095Y26797619D02*
X69571428Y25797619D01*
X71952380Y25797619D02*
X71619047Y26273809D01*
X71380952Y25797619D02*
X71380952Y26797619D01*
X71761904Y26797619D01*
X71857142Y26750000D01*
X71904761Y26702380D01*
X71952380Y26607142D01*
X71952380Y26464285D01*
X71904761Y26369047D01*
X71857142Y26321428D01*
X71761904Y26273809D01*
X71380952Y26273809D01*
X72285714Y26797619D02*
X72952380Y25797619D01*
X72952380Y26797619D02*
X72285714Y25797619D01*
X74619047Y26750000D02*
X74523809Y26797619D01*
X74380952Y26797619D01*
X74238095Y26750000D01*
X74142857Y26654761D01*
X74095238Y26559523D01*
X74047619Y26369047D01*
X74047619Y26226190D01*
X74095238Y26035714D01*
X74142857Y25940476D01*
X74238095Y25845238D01*
X74380952Y25797619D01*
X74476190Y25797619D01*
X74619047Y25845238D01*
X74666666Y25892857D01*
X74666666Y26226190D01*
X74476190Y26226190D01*
X75095238Y25797619D02*
X75095238Y26797619D01*
X75666666Y25797619D01*
X75666666Y26797619D01*
X76142857Y25797619D02*
X76142857Y26797619D01*
X76380952Y26797619D01*
X76523809Y26750000D01*
X76619047Y26654761D01*
X76666666Y26559523D01*
X76714285Y26369047D01*
X76714285Y26226190D01*
X76666666Y26035714D01*
X76619047Y25940476D01*
X76523809Y25845238D01*
X76380952Y25797619D01*
X76142857Y25797619D01*
X24738095Y-2452380D02*
X25071428Y-3452380D01*
X25404761Y-2452380D01*
X26309523Y-3357142D02*
X26261904Y-3404761D01*
X26119047Y-3452380D01*
X26023809Y-3452380D01*
X25880952Y-3404761D01*
X25785714Y-3309523D01*
X25738095Y-3214285D01*
X25690476Y-3023809D01*
X25690476Y-2880952D01*
X25738095Y-2690476D01*
X25785714Y-2595238D01*
X25880952Y-2500000D01*
X26023809Y-2452380D01*
X26119047Y-2452380D01*
X26261904Y-2500000D01*
X26309523Y-2547619D01*
X27309523Y-3357142D02*
X27261904Y-3404761D01*
X27119047Y-3452380D01*
X27023809Y-3452380D01*
X26880952Y-3404761D01*
X26785714Y-3309523D01*
X26738095Y-3214285D01*
X26690476Y-3023809D01*
X26690476Y-2880952D01*
X26738095Y-2690476D01*
X26785714Y-2595238D01*
X26880952Y-2500000D01*
X27023809Y-2452380D01*
X27119047Y-2452380D01*
X27261904Y-2500000D01*
X27309523Y-2547619D01*
X28500000Y-3452380D02*
X28500000Y-2452380D01*
X29166666Y-2452380D02*
X29357142Y-2452380D01*
X29452380Y-2500000D01*
X29547619Y-2595238D01*
X29595238Y-2785714D01*
X29595238Y-3119047D01*
X29547619Y-3309523D01*
X29452380Y-3404761D01*
X29357142Y-3452380D01*
X29166666Y-3452380D01*
X29071428Y-3404761D01*
X28976190Y-3309523D01*
X28928571Y-3119047D01*
X28928571Y-2785714D01*
X28976190Y-2595238D01*
X29071428Y-2500000D01*
X29166666Y-2452380D01*
X31357142Y-3357142D02*
X31309523Y-3404761D01*
X31166666Y-3452380D01*
X31071428Y-3452380D01*
X30928571Y-3404761D01*
X30833333Y-3309523D01*
X30785714Y-3214285D01*
X30738095Y-3023809D01*
X30738095Y-2880952D01*
X30785714Y-2690476D01*
X30833333Y-2595238D01*
X30928571Y-2500000D01*
X31071428Y-2452380D01*
X31166666Y-2452380D01*
X31309523Y-2500000D01*
X31357142Y-2547619D01*
X31785714Y-3452380D02*
X31785714Y-2452380D01*
X32357142Y-3452380D02*
X31928571Y-2880952D01*
X32357142Y-2452380D02*
X31785714Y-3023809D01*
X34071428Y-2500000D02*
X33976190Y-2452380D01*
X33833333Y-2452380D01*
X33690476Y-2500000D01*
X33595238Y-2595238D01*
X33547619Y-2690476D01*
X33500000Y-2880952D01*
X33500000Y-3023809D01*
X33547619Y-3214285D01*
X33595238Y-3309523D01*
X33690476Y-3404761D01*
X33833333Y-3452380D01*
X33928571Y-3452380D01*
X34071428Y-3404761D01*
X34119047Y-3357142D01*
X34119047Y-3023809D01*
X33928571Y-3023809D01*
X34547619Y-3452380D02*
X34547619Y-2452380D01*
X35119047Y-3452380D01*
X35119047Y-2452380D01*
X35595238Y-3452380D02*
X35595238Y-2452380D01*
X35833333Y-2452380D01*
X35976190Y-2500000D01*
X36071428Y-2595238D01*
X36119047Y-2690476D01*
X36166666Y-2880952D01*
X36166666Y-3023809D01*
X36119047Y-3214285D01*
X36071428Y-3309523D01*
X35976190Y-3404761D01*
X35833333Y-3452380D01*
X35595238Y-3452380D01*
X80952380Y6059523D02*
X80952380Y6250000D01*
X81000000Y6345238D01*
X81095238Y6440476D01*
X81285714Y6488095D01*
X81619047Y6488095D01*
X81809523Y6440476D01*
X81904761Y6345238D01*
X81952380Y6250000D01*
X81952380Y6059523D01*
X81904761Y5964285D01*
X81809523Y5869047D01*
X81619047Y5821428D01*
X81285714Y5821428D01*
X81095238Y5869047D01*
X81000000Y5964285D01*
X80952380Y6059523D01*
X81904761Y6869047D02*
X81952380Y7011904D01*
X81952380Y7250000D01*
X81904761Y7345238D01*
X81857142Y7392857D01*
X81761904Y7440476D01*
X81666666Y7440476D01*
X81571428Y7392857D01*
X81523809Y7345238D01*
X81476190Y7250000D01*
X81428571Y7059523D01*
X81380952Y6964285D01*
X81333333Y6916666D01*
X81238095Y6869047D01*
X81142857Y6869047D01*
X81047619Y6916666D01*
X81000000Y6964285D01*
X80952380Y7059523D01*
X80952380Y7297619D01*
X81000000Y7440476D01*
X81857142Y8440476D02*
X81904761Y8392857D01*
X81952380Y8250000D01*
X81952380Y8154761D01*
X81904761Y8011904D01*
X81809523Y7916666D01*
X81714285Y7869047D01*
X81523809Y7821428D01*
X81380952Y7821428D01*
X81190476Y7869047D01*
X81095238Y7916666D01*
X81000000Y8011904D01*
X80952380Y8154761D01*
X80952380Y8250000D01*
X81000000Y8392857D01*
X81047619Y8440476D01*
X81571428Y8869047D02*
X81571428Y9630952D01*
X81952380Y9250000D02*
X81190476Y9250000D01*
D11*
%TO.C,U2*%
X67066000Y3363000D02*
X68431000Y3363000D01*
X67066000Y2663000D02*
X67066000Y3363000D01*
X66366000Y2663000D02*
X67066000Y2663000D01*
X52846000Y2663000D02*
X52846000Y3363000D01*
X53546000Y2663000D02*
X52846000Y2663000D01*
X67066000Y16883000D02*
X67066000Y16183000D01*
X66366000Y16883000D02*
X67066000Y16883000D01*
X52846000Y16883000D02*
X52846000Y16183000D01*
X53546000Y16883000D02*
X52846000Y16883000D01*
%TO.C,C1*%
X29782436Y2711000D02*
X30986564Y2711000D01*
X29782436Y-9000D02*
X30986564Y-9000D01*
%TO.C,C2*%
X37057000Y7240564D02*
X37057000Y6036436D01*
X34337000Y7240564D02*
X34337000Y6036436D01*
%TO.C,C3*%
X47880267Y11789000D02*
X47537733Y11789000D01*
X47880267Y10769000D02*
X47537733Y10769000D01*
%TO.C,C4*%
X28485733Y17401000D02*
X28828267Y17401000D01*
X28485733Y18421000D02*
X28828267Y18421000D01*
%TO.C,C5*%
X28485733Y15246000D02*
X28828267Y15246000D01*
X28485733Y14226000D02*
X28828267Y14226000D01*
%TO.C,C6*%
X64979733Y20318000D02*
X65322267Y20318000D01*
X64979733Y21338000D02*
X65322267Y21338000D01*
%TO.C,C7*%
X72138000Y7664267D02*
X72138000Y7321733D01*
X71118000Y7664267D02*
X71118000Y7321733D01*
%TO.C,C8*%
X47880267Y13639000D02*
X47537733Y13639000D01*
X47880267Y12619000D02*
X47537733Y12619000D01*
%TO.C,C9*%
X78701267Y7248000D02*
X78358733Y7248000D01*
X78701267Y6228000D02*
X78358733Y6228000D01*
%TO.C,C10*%
X55313733Y21465000D02*
X55656267Y21465000D01*
X55313733Y20445000D02*
X55656267Y20445000D01*
%TO.C,C11*%
X47796267Y3685000D02*
X47453733Y3685000D01*
X47796267Y2665000D02*
X47453733Y2665000D01*
%TO.C,C12*%
X73764733Y18198000D02*
X74107267Y18198000D01*
X73764733Y17178000D02*
X74107267Y17178000D01*
%TO.C,C13*%
X78485733Y16265000D02*
X78828267Y16265000D01*
X78485733Y15245000D02*
X78828267Y15245000D01*
%TO.C,D21*%
X71345000Y-4260000D02*
X73805000Y-4260000D01*
X73805000Y-4260000D02*
X73805000Y-2790000D01*
X73805000Y-2790000D02*
X71345000Y-2790000D01*
%TO.C,D22*%
X73805000Y-865000D02*
X71345000Y-865000D01*
X73805000Y-2335000D02*
X73805000Y-865000D01*
X71345000Y-2335000D02*
X73805000Y-2335000D01*
%TO.C,D23*%
X71295000Y-300000D02*
X73755000Y-300000D01*
X73755000Y-300000D02*
X73755000Y1170000D01*
X73755000Y1170000D02*
X71295000Y1170000D01*
%TO.C,D24*%
X73755000Y2945000D02*
X71295000Y2945000D01*
X73755000Y1475000D02*
X73755000Y2945000D01*
X71295000Y1475000D02*
X73755000Y1475000D01*
%TO.C,J1*%
X50070000Y23430000D02*
X50070000Y25230000D01*
X50070000Y28940000D02*
X50070000Y27480000D01*
X41130000Y28940000D02*
X41130000Y27480000D01*
X41130000Y23430000D02*
X41130000Y25230000D01*
X41130000Y28940000D02*
X50070000Y28940000D01*
%TO.C,J2*%
X65980000Y22800000D02*
X65980000Y24130000D01*
X67310000Y22800000D02*
X65980000Y22800000D01*
X68580000Y22800000D02*
X68580000Y25460000D01*
X68580000Y25460000D02*
X76260000Y25460000D01*
X68580000Y22800000D02*
X76260000Y22800000D01*
X76260000Y22800000D02*
X76260000Y25460000D01*
%TO.C,J3*%
X25340000Y-6537000D02*
X25340000Y-5207000D01*
X26670000Y-6537000D02*
X25340000Y-6537000D01*
X27940000Y-6537000D02*
X27940000Y-3877000D01*
X27940000Y-3877000D02*
X38160000Y-3877000D01*
X27940000Y-6537000D02*
X38160000Y-6537000D01*
X38160000Y-6537000D02*
X38160000Y-3877000D01*
%TO.C,R1*%
X72651000Y12159267D02*
X72651000Y11816733D01*
X73671000Y12159267D02*
X73671000Y11816733D01*
%TO.C,R2*%
X37110000Y23153733D02*
X37110000Y23496267D01*
X36090000Y23153733D02*
X36090000Y23496267D01*
%TO.C,R3*%
X76281267Y-4035000D02*
X75938733Y-4035000D01*
X76281267Y-3015000D02*
X75938733Y-3015000D01*
%TO.C,R4*%
X76281267Y-2110000D02*
X75938733Y-2110000D01*
X76281267Y-1090000D02*
X75938733Y-1090000D01*
%TO.C,R5*%
X76231267Y945000D02*
X75888733Y945000D01*
X76231267Y-75000D02*
X75888733Y-75000D01*
%TO.C,R6*%
X76231267Y1700000D02*
X75888733Y1700000D01*
X76231267Y2720000D02*
X75888733Y2720000D01*
%TO.C,R7*%
X48007267Y6328000D02*
X47664733Y6328000D01*
X48007267Y7348000D02*
X47664733Y7348000D01*
%TO.C,R8*%
X48007267Y5598000D02*
X47664733Y5598000D01*
X48007267Y4578000D02*
X47664733Y4578000D01*
%TO.C,SW1*%
X12015000Y-25985000D02*
X12015000Y-12015000D01*
X25985000Y-25985000D02*
X12015000Y-25985000D01*
X25985000Y-12015000D02*
X25985000Y-25985000D01*
X12015000Y-12015000D02*
X25985000Y-12015000D01*
%TO.C,SW2*%
X31015000Y-25985000D02*
X31015000Y-12015000D01*
X44985000Y-25985000D02*
X31015000Y-25985000D01*
X44985000Y-12015000D02*
X44985000Y-25985000D01*
X31015000Y-12015000D02*
X44985000Y-12015000D01*
%TO.C,SW3*%
X50015000Y-25985000D02*
X50015000Y-12015000D01*
X63985000Y-25985000D02*
X50015000Y-25985000D01*
X63985000Y-12015000D02*
X63985000Y-25985000D01*
X50015000Y-12015000D02*
X63985000Y-12015000D01*
%TO.C,SW4*%
X69015000Y-25985000D02*
X69015000Y-12015000D01*
X82985000Y-25985000D02*
X69015000Y-25985000D01*
X82985000Y-12015000D02*
X82985000Y-25985000D01*
X69015000Y-12015000D02*
X82985000Y-12015000D01*
%TO.C,SW5*%
X12015000Y-31015000D02*
X25985000Y-31015000D01*
X25985000Y-31015000D02*
X25985000Y-44985000D01*
X25985000Y-44985000D02*
X12015000Y-44985000D01*
X12015000Y-44985000D02*
X12015000Y-31015000D01*
%TO.C,SW6*%
X31015000Y-44985000D02*
X31015000Y-31015000D01*
X44985000Y-44985000D02*
X31015000Y-44985000D01*
X44985000Y-31015000D02*
X44985000Y-44985000D01*
X31015000Y-31015000D02*
X44985000Y-31015000D01*
%TO.C,SW7*%
X50015000Y-31015000D02*
X63985000Y-31015000D01*
X63985000Y-31015000D02*
X63985000Y-44985000D01*
X63985000Y-44985000D02*
X50015000Y-44985000D01*
X50015000Y-44985000D02*
X50015000Y-31015000D01*
%TO.C,SW8*%
X69015000Y-44985000D02*
X69015000Y-31015000D01*
X82985000Y-44985000D02*
X69015000Y-44985000D01*
X82985000Y-31015000D02*
X82985000Y-44985000D01*
X69015000Y-31015000D02*
X82985000Y-31015000D01*
%TO.C,SW9*%
X12015000Y-50015000D02*
X25985000Y-50015000D01*
X25985000Y-50015000D02*
X25985000Y-63985000D01*
X25985000Y-63985000D02*
X12015000Y-63985000D01*
X12015000Y-63985000D02*
X12015000Y-50015000D01*
%TO.C,SW10*%
X31015000Y-50015000D02*
X44985000Y-50015000D01*
X44985000Y-50015000D02*
X44985000Y-63985000D01*
X44985000Y-63985000D02*
X31015000Y-63985000D01*
X31015000Y-63985000D02*
X31015000Y-50015000D01*
%TO.C,SW11*%
X50015000Y-50015000D02*
X63985000Y-50015000D01*
X63985000Y-50015000D02*
X63985000Y-63985000D01*
X63985000Y-63985000D02*
X50015000Y-63985000D01*
X50015000Y-63985000D02*
X50015000Y-50015000D01*
%TO.C,SW12*%
X69015000Y-50015000D02*
X82985000Y-50015000D01*
X82985000Y-50015000D02*
X82985000Y-63985000D01*
X82985000Y-63985000D02*
X69015000Y-63985000D01*
X69015000Y-63985000D02*
X69015000Y-50015000D01*
%TO.C,SW13*%
X12015000Y-69015000D02*
X25985000Y-69015000D01*
X25985000Y-69015000D02*
X25985000Y-82985000D01*
X25985000Y-82985000D02*
X12015000Y-82985000D01*
X12015000Y-82985000D02*
X12015000Y-69015000D01*
%TO.C,SW14*%
X31015000Y-82985000D02*
X31015000Y-69015000D01*
X44985000Y-82985000D02*
X31015000Y-82985000D01*
X44985000Y-69015000D02*
X44985000Y-82985000D01*
X31015000Y-69015000D02*
X44985000Y-69015000D01*
%TO.C,SW15*%
X50015000Y-82985000D02*
X50015000Y-69015000D01*
X63985000Y-82985000D02*
X50015000Y-82985000D01*
X63985000Y-69015000D02*
X63985000Y-82985000D01*
X50015000Y-69015000D02*
X63985000Y-69015000D01*
%TO.C,SW16*%
X69015000Y-82985000D02*
X69015000Y-69015000D01*
X82985000Y-82985000D02*
X69015000Y-82985000D01*
X82985000Y-69015000D02*
X82985000Y-82985000D01*
X69015000Y-69015000D02*
X82985000Y-69015000D01*
%TO.C,SW17*%
X12015000Y-101985000D02*
X12015000Y-88015000D01*
X25985000Y-101985000D02*
X12015000Y-101985000D01*
X25985000Y-88015000D02*
X25985000Y-101985000D01*
X12015000Y-88015000D02*
X25985000Y-88015000D01*
%TO.C,SW18*%
X31015000Y-88015000D02*
X44985000Y-88015000D01*
X44985000Y-88015000D02*
X44985000Y-101985000D01*
X44985000Y-101985000D02*
X31015000Y-101985000D01*
X31015000Y-101985000D02*
X31015000Y-88015000D01*
%TO.C,SW19*%
X50015000Y-88015000D02*
X63985000Y-88015000D01*
X63985000Y-88015000D02*
X63985000Y-101985000D01*
X63985000Y-101985000D02*
X50015000Y-101985000D01*
X50015000Y-101985000D02*
X50015000Y-88015000D01*
%TO.C,SW20*%
X69015000Y-88015000D02*
X82985000Y-88015000D01*
X82985000Y-88015000D02*
X82985000Y-101985000D01*
X82985000Y-101985000D02*
X69015000Y-101985000D01*
X69015000Y-101985000D02*
X69015000Y-88015000D01*
%TO.C,U1*%
X32947000Y3941000D02*
X26937000Y3941000D01*
X30697000Y10761000D02*
X26937000Y10761000D01*
X26937000Y3941000D02*
X26937000Y5201000D01*
X26937000Y10761000D02*
X26937000Y9501000D01*
%TO.C,U3*%
X41286000Y18882000D02*
X38836000Y18882000D01*
X39486000Y15662000D02*
X41286000Y15662000D01*
%TO.C,Y1*%
X80674000Y8409000D02*
X80674000Y13809000D01*
X76174000Y8409000D02*
X80674000Y8409000D01*
%TO.C,U2*%
D10*
X59194095Y900619D02*
X59194095Y91095D01*
X59241714Y-4142D01*
X59289333Y-51761D01*
X59384571Y-99380D01*
X59575047Y-99380D01*
X59670285Y-51761D01*
X59717904Y-4142D01*
X59765523Y91095D01*
X59765523Y900619D01*
X60194095Y805380D02*
X60241714Y853000D01*
X60336952Y900619D01*
X60575047Y900619D01*
X60670285Y853000D01*
X60717904Y805380D01*
X60765523Y710142D01*
X60765523Y614904D01*
X60717904Y472047D01*
X60146476Y-99380D01*
X60765523Y-99380D01*
%TO.C,C1*%
X30217833Y3273857D02*
X30170214Y3226238D01*
X30027357Y3178619D01*
X29932119Y3178619D01*
X29789261Y3226238D01*
X29694023Y3321476D01*
X29646404Y3416714D01*
X29598785Y3607190D01*
X29598785Y3750047D01*
X29646404Y3940523D01*
X29694023Y4035761D01*
X29789261Y4131000D01*
X29932119Y4178619D01*
X30027357Y4178619D01*
X30170214Y4131000D01*
X30217833Y4083380D01*
X31170214Y3178619D02*
X30598785Y3178619D01*
X30884500Y3178619D02*
X30884500Y4178619D01*
X30789261Y4035761D01*
X30694023Y3940523D01*
X30598785Y3892904D01*
%TO.C,C2*%
X38334142Y6471833D02*
X38381761Y6424214D01*
X38429380Y6281357D01*
X38429380Y6186119D01*
X38381761Y6043261D01*
X38286523Y5948023D01*
X38191285Y5900404D01*
X38000809Y5852785D01*
X37857952Y5852785D01*
X37667476Y5900404D01*
X37572238Y5948023D01*
X37477000Y6043261D01*
X37429380Y6186119D01*
X37429380Y6281357D01*
X37477000Y6424214D01*
X37524619Y6471833D01*
X37524619Y6852785D02*
X37477000Y6900404D01*
X37429380Y6995642D01*
X37429380Y7233738D01*
X37477000Y7328976D01*
X37524619Y7376595D01*
X37619857Y7424214D01*
X37715095Y7424214D01*
X37857952Y7376595D01*
X38429380Y6805166D01*
X38429380Y7424214D01*
%TO.C,C3*%
X44342333Y10921857D02*
X44294714Y10874238D01*
X44151857Y10826619D01*
X44056619Y10826619D01*
X43913761Y10874238D01*
X43818523Y10969476D01*
X43770904Y11064714D01*
X43723285Y11255190D01*
X43723285Y11398047D01*
X43770904Y11588523D01*
X43818523Y11683761D01*
X43913761Y11779000D01*
X44056619Y11826619D01*
X44151857Y11826619D01*
X44294714Y11779000D01*
X44342333Y11731380D01*
X44675666Y11826619D02*
X45294714Y11826619D01*
X44961380Y11445666D01*
X45104238Y11445666D01*
X45199476Y11398047D01*
X45247095Y11350428D01*
X45294714Y11255190D01*
X45294714Y11017095D01*
X45247095Y10921857D01*
X45199476Y10874238D01*
X45104238Y10826619D01*
X44818523Y10826619D01*
X44723285Y10874238D01*
X44675666Y10921857D01*
%TO.C,C4*%
X28490333Y18983857D02*
X28442714Y18936238D01*
X28299857Y18888619D01*
X28204619Y18888619D01*
X28061761Y18936238D01*
X27966523Y19031476D01*
X27918904Y19126714D01*
X27871285Y19317190D01*
X27871285Y19460047D01*
X27918904Y19650523D01*
X27966523Y19745761D01*
X28061761Y19841000D01*
X28204619Y19888619D01*
X28299857Y19888619D01*
X28442714Y19841000D01*
X28490333Y19793380D01*
X29347476Y19555285D02*
X29347476Y18888619D01*
X29109380Y19936238D02*
X28871285Y19221952D01*
X29490333Y19221952D01*
%TO.C,C5*%
X28490333Y15808857D02*
X28442714Y15761238D01*
X28299857Y15713619D01*
X28204619Y15713619D01*
X28061761Y15761238D01*
X27966523Y15856476D01*
X27918904Y15951714D01*
X27871285Y16142190D01*
X27871285Y16285047D01*
X27918904Y16475523D01*
X27966523Y16570761D01*
X28061761Y16666000D01*
X28204619Y16713619D01*
X28299857Y16713619D01*
X28442714Y16666000D01*
X28490333Y16618380D01*
X29395095Y16713619D02*
X28918904Y16713619D01*
X28871285Y16237428D01*
X28918904Y16285047D01*
X29014142Y16332666D01*
X29252238Y16332666D01*
X29347476Y16285047D01*
X29395095Y16237428D01*
X29442714Y16142190D01*
X29442714Y15904095D01*
X29395095Y15808857D01*
X29347476Y15761238D01*
X29252238Y15713619D01*
X29014142Y15713619D01*
X28918904Y15761238D01*
X28871285Y15808857D01*
%TO.C,C6*%
X69414333Y20545857D02*
X69366714Y20498238D01*
X69223857Y20450619D01*
X69128619Y20450619D01*
X68985761Y20498238D01*
X68890523Y20593476D01*
X68842904Y20688714D01*
X68795285Y20879190D01*
X68795285Y21022047D01*
X68842904Y21212523D01*
X68890523Y21307761D01*
X68985761Y21403000D01*
X69128619Y21450619D01*
X69223857Y21450619D01*
X69366714Y21403000D01*
X69414333Y21355380D01*
X70271476Y21450619D02*
X70081000Y21450619D01*
X69985761Y21403000D01*
X69938142Y21355380D01*
X69842904Y21212523D01*
X69795285Y21022047D01*
X69795285Y20641095D01*
X69842904Y20545857D01*
X69890523Y20498238D01*
X69985761Y20450619D01*
X70176238Y20450619D01*
X70271476Y20498238D01*
X70319095Y20545857D01*
X70366714Y20641095D01*
X70366714Y20879190D01*
X70319095Y20974428D01*
X70271476Y21022047D01*
X70176238Y21069666D01*
X69985761Y21069666D01*
X69890523Y21022047D01*
X69842904Y20974428D01*
X69795285Y20879190D01*
%TO.C,C7*%
X71985142Y4532333D02*
X72032761Y4484714D01*
X72080380Y4341857D01*
X72080380Y4246619D01*
X72032761Y4103761D01*
X71937523Y4008523D01*
X71842285Y3960904D01*
X71651809Y3913285D01*
X71508952Y3913285D01*
X71318476Y3960904D01*
X71223238Y4008523D01*
X71128000Y4103761D01*
X71080380Y4246619D01*
X71080380Y4341857D01*
X71128000Y4484714D01*
X71175619Y4532333D01*
X71080380Y4865666D02*
X71080380Y5532333D01*
X72080380Y5103761D01*
%TO.C,C8*%
X44417333Y12771857D02*
X44369714Y12724238D01*
X44226857Y12676619D01*
X44131619Y12676619D01*
X43988761Y12724238D01*
X43893523Y12819476D01*
X43845904Y12914714D01*
X43798285Y13105190D01*
X43798285Y13248047D01*
X43845904Y13438523D01*
X43893523Y13533761D01*
X43988761Y13629000D01*
X44131619Y13676619D01*
X44226857Y13676619D01*
X44369714Y13629000D01*
X44417333Y13581380D01*
X44988761Y13248047D02*
X44893523Y13295666D01*
X44845904Y13343285D01*
X44798285Y13438523D01*
X44798285Y13486142D01*
X44845904Y13581380D01*
X44893523Y13629000D01*
X44988761Y13676619D01*
X45179238Y13676619D01*
X45274476Y13629000D01*
X45322095Y13581380D01*
X45369714Y13486142D01*
X45369714Y13438523D01*
X45322095Y13343285D01*
X45274476Y13295666D01*
X45179238Y13248047D01*
X44988761Y13248047D01*
X44893523Y13200428D01*
X44845904Y13152809D01*
X44798285Y13057571D01*
X44798285Y12867095D01*
X44845904Y12771857D01*
X44893523Y12724238D01*
X44988761Y12676619D01*
X45179238Y12676619D01*
X45274476Y12724238D01*
X45322095Y12771857D01*
X45369714Y12867095D01*
X45369714Y13057571D01*
X45322095Y13152809D01*
X45274476Y13200428D01*
X45179238Y13248047D01*
%TO.C,C9*%
X78363333Y4950857D02*
X78315714Y4903238D01*
X78172857Y4855619D01*
X78077619Y4855619D01*
X77934761Y4903238D01*
X77839523Y4998476D01*
X77791904Y5093714D01*
X77744285Y5284190D01*
X77744285Y5427047D01*
X77791904Y5617523D01*
X77839523Y5712761D01*
X77934761Y5808000D01*
X78077619Y5855619D01*
X78172857Y5855619D01*
X78315714Y5808000D01*
X78363333Y5760380D01*
X78839523Y4855619D02*
X79030000Y4855619D01*
X79125238Y4903238D01*
X79172857Y4950857D01*
X79268095Y5093714D01*
X79315714Y5284190D01*
X79315714Y5665142D01*
X79268095Y5760380D01*
X79220476Y5808000D01*
X79125238Y5855619D01*
X78934761Y5855619D01*
X78839523Y5808000D01*
X78791904Y5760380D01*
X78744285Y5665142D01*
X78744285Y5427047D01*
X78791904Y5331809D01*
X78839523Y5284190D01*
X78934761Y5236571D01*
X79125238Y5236571D01*
X79220476Y5284190D01*
X79268095Y5331809D01*
X79315714Y5427047D01*
%TO.C,C10*%
X59622142Y20647857D02*
X59574523Y20600238D01*
X59431666Y20552619D01*
X59336428Y20552619D01*
X59193571Y20600238D01*
X59098333Y20695476D01*
X59050714Y20790714D01*
X59003095Y20981190D01*
X59003095Y21124047D01*
X59050714Y21314523D01*
X59098333Y21409761D01*
X59193571Y21505000D01*
X59336428Y21552619D01*
X59431666Y21552619D01*
X59574523Y21505000D01*
X59622142Y21457380D01*
X60574523Y20552619D02*
X60003095Y20552619D01*
X60288809Y20552619D02*
X60288809Y21552619D01*
X60193571Y21409761D01*
X60098333Y21314523D01*
X60003095Y21266904D01*
X61193571Y21552619D02*
X61288809Y21552619D01*
X61384047Y21505000D01*
X61431666Y21457380D01*
X61479285Y21362142D01*
X61526904Y21171666D01*
X61526904Y20933571D01*
X61479285Y20743095D01*
X61431666Y20647857D01*
X61384047Y20600238D01*
X61288809Y20552619D01*
X61193571Y20552619D01*
X61098333Y20600238D01*
X61050714Y20647857D01*
X61003095Y20743095D01*
X60955476Y20933571D01*
X60955476Y21171666D01*
X61003095Y21362142D01*
X61050714Y21457380D01*
X61098333Y21505000D01*
X61193571Y21552619D01*
%TO.C,C11*%
X42552142Y2827857D02*
X42504523Y2780238D01*
X42361666Y2732619D01*
X42266428Y2732619D01*
X42123571Y2780238D01*
X42028333Y2875476D01*
X41980714Y2970714D01*
X41933095Y3161190D01*
X41933095Y3304047D01*
X41980714Y3494523D01*
X42028333Y3589761D01*
X42123571Y3685000D01*
X42266428Y3732619D01*
X42361666Y3732619D01*
X42504523Y3685000D01*
X42552142Y3637380D01*
X43504523Y2732619D02*
X42933095Y2732619D01*
X43218809Y2732619D02*
X43218809Y3732619D01*
X43123571Y3589761D01*
X43028333Y3494523D01*
X42933095Y3446904D01*
X44456904Y2732619D02*
X43885476Y2732619D01*
X44171190Y2732619D02*
X44171190Y3732619D01*
X44075952Y3589761D01*
X43980714Y3494523D01*
X43885476Y3446904D01*
%TO.C,C12*%
X73293142Y18760857D02*
X73245523Y18713238D01*
X73102666Y18665619D01*
X73007428Y18665619D01*
X72864571Y18713238D01*
X72769333Y18808476D01*
X72721714Y18903714D01*
X72674095Y19094190D01*
X72674095Y19237047D01*
X72721714Y19427523D01*
X72769333Y19522761D01*
X72864571Y19618000D01*
X73007428Y19665619D01*
X73102666Y19665619D01*
X73245523Y19618000D01*
X73293142Y19570380D01*
X74245523Y18665619D02*
X73674095Y18665619D01*
X73959809Y18665619D02*
X73959809Y19665619D01*
X73864571Y19522761D01*
X73769333Y19427523D01*
X73674095Y19379904D01*
X74626476Y19570380D02*
X74674095Y19618000D01*
X74769333Y19665619D01*
X75007428Y19665619D01*
X75102666Y19618000D01*
X75150285Y19570380D01*
X75197904Y19475142D01*
X75197904Y19379904D01*
X75150285Y19237047D01*
X74578857Y18665619D01*
X75197904Y18665619D01*
%TO.C,C13*%
X78014142Y16827857D02*
X77966523Y16780238D01*
X77823666Y16732619D01*
X77728428Y16732619D01*
X77585571Y16780238D01*
X77490333Y16875476D01*
X77442714Y16970714D01*
X77395095Y17161190D01*
X77395095Y17304047D01*
X77442714Y17494523D01*
X77490333Y17589761D01*
X77585571Y17685000D01*
X77728428Y17732619D01*
X77823666Y17732619D01*
X77966523Y17685000D01*
X78014142Y17637380D01*
X78966523Y16732619D02*
X78395095Y16732619D01*
X78680809Y16732619D02*
X78680809Y17732619D01*
X78585571Y17589761D01*
X78490333Y17494523D01*
X78395095Y17446904D01*
X79299857Y17732619D02*
X79918904Y17732619D01*
X79585571Y17351666D01*
X79728428Y17351666D01*
X79823666Y17304047D01*
X79871285Y17256428D01*
X79918904Y17161190D01*
X79918904Y16923095D01*
X79871285Y16827857D01*
X79823666Y16780238D01*
X79728428Y16732619D01*
X79442714Y16732619D01*
X79347476Y16780238D01*
X79299857Y16827857D01*
%TO.C,D21*%
X67745714Y-3982380D02*
X67745714Y-2982380D01*
X67983809Y-2982380D01*
X68126666Y-3030000D01*
X68221904Y-3125238D01*
X68269523Y-3220476D01*
X68317142Y-3410952D01*
X68317142Y-3553809D01*
X68269523Y-3744285D01*
X68221904Y-3839523D01*
X68126666Y-3934761D01*
X67983809Y-3982380D01*
X67745714Y-3982380D01*
X68698095Y-3077619D02*
X68745714Y-3030000D01*
X68840952Y-2982380D01*
X69079047Y-2982380D01*
X69174285Y-3030000D01*
X69221904Y-3077619D01*
X69269523Y-3172857D01*
X69269523Y-3268095D01*
X69221904Y-3410952D01*
X68650476Y-3982380D01*
X69269523Y-3982380D01*
X70221904Y-3982380D02*
X69650476Y-3982380D01*
X69936190Y-3982380D02*
X69936190Y-2982380D01*
X69840952Y-3125238D01*
X69745714Y-3220476D01*
X69650476Y-3268095D01*
%TO.C,D22*%
X67745714Y-2032380D02*
X67745714Y-1032380D01*
X67983809Y-1032380D01*
X68126666Y-1080000D01*
X68221904Y-1175238D01*
X68269523Y-1270476D01*
X68317142Y-1460952D01*
X68317142Y-1603809D01*
X68269523Y-1794285D01*
X68221904Y-1889523D01*
X68126666Y-1984761D01*
X67983809Y-2032380D01*
X67745714Y-2032380D01*
X68698095Y-1127619D02*
X68745714Y-1080000D01*
X68840952Y-1032380D01*
X69079047Y-1032380D01*
X69174285Y-1080000D01*
X69221904Y-1127619D01*
X69269523Y-1222857D01*
X69269523Y-1318095D01*
X69221904Y-1460952D01*
X68650476Y-2032380D01*
X69269523Y-2032380D01*
X69650476Y-1127619D02*
X69698095Y-1080000D01*
X69793333Y-1032380D01*
X70031428Y-1032380D01*
X70126666Y-1080000D01*
X70174285Y-1127619D01*
X70221904Y-1222857D01*
X70221904Y-1318095D01*
X70174285Y-1460952D01*
X69602857Y-2032380D01*
X70221904Y-2032380D01*
%TO.C,D23*%
X67695714Y27619D02*
X67695714Y1027619D01*
X67933809Y1027619D01*
X68076666Y980000D01*
X68171904Y884761D01*
X68219523Y789523D01*
X68267142Y599047D01*
X68267142Y456190D01*
X68219523Y265714D01*
X68171904Y170476D01*
X68076666Y75238D01*
X67933809Y27619D01*
X67695714Y27619D01*
X68648095Y932380D02*
X68695714Y980000D01*
X68790952Y1027619D01*
X69029047Y1027619D01*
X69124285Y980000D01*
X69171904Y932380D01*
X69219523Y837142D01*
X69219523Y741904D01*
X69171904Y599047D01*
X68600476Y27619D01*
X69219523Y27619D01*
X69552857Y1027619D02*
X70171904Y1027619D01*
X69838571Y646666D01*
X69981428Y646666D01*
X70076666Y599047D01*
X70124285Y551428D01*
X70171904Y456190D01*
X70171904Y218095D01*
X70124285Y122857D01*
X70076666Y75238D01*
X69981428Y27619D01*
X69695714Y27619D01*
X69600476Y75238D01*
X69552857Y122857D01*
%TO.C,D24*%
X67695714Y1827619D02*
X67695714Y2827619D01*
X67933809Y2827619D01*
X68076666Y2780000D01*
X68171904Y2684761D01*
X68219523Y2589523D01*
X68267142Y2399047D01*
X68267142Y2256190D01*
X68219523Y2065714D01*
X68171904Y1970476D01*
X68076666Y1875238D01*
X67933809Y1827619D01*
X67695714Y1827619D01*
X68648095Y2732380D02*
X68695714Y2780000D01*
X68790952Y2827619D01*
X69029047Y2827619D01*
X69124285Y2780000D01*
X69171904Y2732380D01*
X69219523Y2637142D01*
X69219523Y2541904D01*
X69171904Y2399047D01*
X68600476Y1827619D01*
X69219523Y1827619D01*
X70076666Y2494285D02*
X70076666Y1827619D01*
X69838571Y2875238D02*
X69600476Y2160952D01*
X70219523Y2160952D01*
%TO.C,H1*%
X12238095Y20047619D02*
X12238095Y21047619D01*
X12238095Y20571428D02*
X12809523Y20571428D01*
X12809523Y20047619D02*
X12809523Y21047619D01*
X13809523Y20047619D02*
X13238095Y20047619D01*
X13523809Y20047619D02*
X13523809Y21047619D01*
X13428571Y20904761D01*
X13333333Y20809523D01*
X13238095Y20761904D01*
%TO.C,H2*%
X81238095Y20047619D02*
X81238095Y21047619D01*
X81238095Y20571428D02*
X81809523Y20571428D01*
X81809523Y20047619D02*
X81809523Y21047619D01*
X82238095Y20952380D02*
X82285714Y21000000D01*
X82380952Y21047619D01*
X82619047Y21047619D01*
X82714285Y21000000D01*
X82761904Y20952380D01*
X82809523Y20857142D01*
X82809523Y20761904D01*
X82761904Y20619047D01*
X82190476Y20047619D01*
X82809523Y20047619D01*
%TO.C,H3*%
X27738095Y-82102380D02*
X27738095Y-81102380D01*
X27738095Y-81578571D02*
X28309523Y-81578571D01*
X28309523Y-82102380D02*
X28309523Y-81102380D01*
X28690476Y-81102380D02*
X29309523Y-81102380D01*
X28976190Y-81483333D01*
X29119047Y-81483333D01*
X29214285Y-81530952D01*
X29261904Y-81578571D01*
X29309523Y-81673809D01*
X29309523Y-81911904D01*
X29261904Y-82007142D01*
X29214285Y-82054761D01*
X29119047Y-82102380D01*
X28833333Y-82102380D01*
X28738095Y-82054761D01*
X28690476Y-82007142D01*
%TO.C,H4*%
X65738095Y-82102380D02*
X65738095Y-81102380D01*
X65738095Y-81578571D02*
X66309523Y-81578571D01*
X66309523Y-82102380D02*
X66309523Y-81102380D01*
X67214285Y-81435714D02*
X67214285Y-82102380D01*
X66976190Y-81054761D02*
X66738095Y-81769047D01*
X67357142Y-81769047D01*
%TO.C,H5*%
X46738095Y-63102380D02*
X46738095Y-62102380D01*
X46738095Y-62578571D02*
X47309523Y-62578571D01*
X47309523Y-63102380D02*
X47309523Y-62102380D01*
X48261904Y-62102380D02*
X47785714Y-62102380D01*
X47738095Y-62578571D01*
X47785714Y-62530952D01*
X47880952Y-62483333D01*
X48119047Y-62483333D01*
X48214285Y-62530952D01*
X48261904Y-62578571D01*
X48309523Y-62673809D01*
X48309523Y-62911904D01*
X48261904Y-63007142D01*
X48214285Y-63054761D01*
X48119047Y-63102380D01*
X47880952Y-63102380D01*
X47785714Y-63054761D01*
X47738095Y-63007142D01*
%TO.C,J1*%
X38916666Y24774619D02*
X38916666Y24060333D01*
X38869047Y23917476D01*
X38773809Y23822238D01*
X38630952Y23774619D01*
X38535714Y23774619D01*
X39916666Y23774619D02*
X39345238Y23774619D01*
X39630952Y23774619D02*
X39630952Y24774619D01*
X39535714Y24631761D01*
X39440476Y24536523D01*
X39345238Y24488904D01*
%TO.C,J2*%
X64432380Y23796666D02*
X65146666Y23796666D01*
X65289523Y23749047D01*
X65384761Y23653809D01*
X65432380Y23510952D01*
X65432380Y23415714D01*
X64527619Y24225238D02*
X64480000Y24272857D01*
X64432380Y24368095D01*
X64432380Y24606190D01*
X64480000Y24701428D01*
X64527619Y24749047D01*
X64622857Y24796666D01*
X64718095Y24796666D01*
X64860952Y24749047D01*
X65432380Y24177619D01*
X65432380Y24796666D01*
%TO.C,J3*%
X23792380Y-5540333D02*
X24506666Y-5540333D01*
X24649523Y-5587952D01*
X24744761Y-5683190D01*
X24792380Y-5826047D01*
X24792380Y-5921285D01*
X23792380Y-5159380D02*
X23792380Y-4540333D01*
X24173333Y-4873666D01*
X24173333Y-4730809D01*
X24220952Y-4635571D01*
X24268571Y-4587952D01*
X24363809Y-4540333D01*
X24601904Y-4540333D01*
X24697142Y-4587952D01*
X24744761Y-4635571D01*
X24792380Y-4730809D01*
X24792380Y-5016523D01*
X24744761Y-5111761D01*
X24697142Y-5159380D01*
%TO.C,R1*%
X75043380Y11821333D02*
X74567190Y11488000D01*
X75043380Y11249904D02*
X74043380Y11249904D01*
X74043380Y11630857D01*
X74091000Y11726095D01*
X74138619Y11773714D01*
X74233857Y11821333D01*
X74376714Y11821333D01*
X74471952Y11773714D01*
X74519571Y11726095D01*
X74567190Y11630857D01*
X74567190Y11249904D01*
X75043380Y12773714D02*
X75043380Y12202285D01*
X75043380Y12488000D02*
X74043380Y12488000D01*
X74186238Y12392761D01*
X74281476Y12297523D01*
X74329095Y12202285D01*
%TO.C,R2*%
X36952380Y26883333D02*
X36476190Y26550000D01*
X36952380Y26311904D02*
X35952380Y26311904D01*
X35952380Y26692857D01*
X36000000Y26788095D01*
X36047619Y26835714D01*
X36142857Y26883333D01*
X36285714Y26883333D01*
X36380952Y26835714D01*
X36428571Y26788095D01*
X36476190Y26692857D01*
X36476190Y26311904D01*
X36047619Y27264285D02*
X36000000Y27311904D01*
X35952380Y27407142D01*
X35952380Y27645238D01*
X36000000Y27740476D01*
X36047619Y27788095D01*
X36142857Y27835714D01*
X36238095Y27835714D01*
X36380952Y27788095D01*
X36952380Y27216666D01*
X36952380Y27835714D01*
%TO.C,R3*%
X78793333Y-3982380D02*
X78460000Y-3506190D01*
X78221904Y-3982380D02*
X78221904Y-2982380D01*
X78602857Y-2982380D01*
X78698095Y-3030000D01*
X78745714Y-3077619D01*
X78793333Y-3172857D01*
X78793333Y-3315714D01*
X78745714Y-3410952D01*
X78698095Y-3458571D01*
X78602857Y-3506190D01*
X78221904Y-3506190D01*
X79126666Y-2982380D02*
X79745714Y-2982380D01*
X79412380Y-3363333D01*
X79555238Y-3363333D01*
X79650476Y-3410952D01*
X79698095Y-3458571D01*
X79745714Y-3553809D01*
X79745714Y-3791904D01*
X79698095Y-3887142D01*
X79650476Y-3934761D01*
X79555238Y-3982380D01*
X79269523Y-3982380D01*
X79174285Y-3934761D01*
X79126666Y-3887142D01*
%TO.C,R4*%
X78793333Y-2032380D02*
X78460000Y-1556190D01*
X78221904Y-2032380D02*
X78221904Y-1032380D01*
X78602857Y-1032380D01*
X78698095Y-1080000D01*
X78745714Y-1127619D01*
X78793333Y-1222857D01*
X78793333Y-1365714D01*
X78745714Y-1460952D01*
X78698095Y-1508571D01*
X78602857Y-1556190D01*
X78221904Y-1556190D01*
X79650476Y-1365714D02*
X79650476Y-2032380D01*
X79412380Y-984761D02*
X79174285Y-1699047D01*
X79793333Y-1699047D01*
%TO.C,R5*%
X78743333Y27619D02*
X78410000Y503809D01*
X78171904Y27619D02*
X78171904Y1027619D01*
X78552857Y1027619D01*
X78648095Y980000D01*
X78695714Y932380D01*
X78743333Y837142D01*
X78743333Y694285D01*
X78695714Y599047D01*
X78648095Y551428D01*
X78552857Y503809D01*
X78171904Y503809D01*
X79648095Y1027619D02*
X79171904Y1027619D01*
X79124285Y551428D01*
X79171904Y599047D01*
X79267142Y646666D01*
X79505238Y646666D01*
X79600476Y599047D01*
X79648095Y551428D01*
X79695714Y456190D01*
X79695714Y218095D01*
X79648095Y122857D01*
X79600476Y75238D01*
X79505238Y27619D01*
X79267142Y27619D01*
X79171904Y75238D01*
X79124285Y122857D01*
%TO.C,R6*%
X78743333Y1827619D02*
X78410000Y2303809D01*
X78171904Y1827619D02*
X78171904Y2827619D01*
X78552857Y2827619D01*
X78648095Y2780000D01*
X78695714Y2732380D01*
X78743333Y2637142D01*
X78743333Y2494285D01*
X78695714Y2399047D01*
X78648095Y2351428D01*
X78552857Y2303809D01*
X78171904Y2303809D01*
X79600476Y2827619D02*
X79410000Y2827619D01*
X79314761Y2780000D01*
X79267142Y2732380D01*
X79171904Y2589523D01*
X79124285Y2399047D01*
X79124285Y2018095D01*
X79171904Y1922857D01*
X79219523Y1875238D01*
X79314761Y1827619D01*
X79505238Y1827619D01*
X79600476Y1875238D01*
X79648095Y1922857D01*
X79695714Y2018095D01*
X79695714Y2256190D01*
X79648095Y2351428D01*
X79600476Y2399047D01*
X79505238Y2446666D01*
X79314761Y2446666D01*
X79219523Y2399047D01*
X79171904Y2351428D01*
X79124285Y2256190D01*
%TO.C,R7*%
X44649333Y6355619D02*
X44316000Y6831809D01*
X44077904Y6355619D02*
X44077904Y7355619D01*
X44458857Y7355619D01*
X44554095Y7308000D01*
X44601714Y7260380D01*
X44649333Y7165142D01*
X44649333Y7022285D01*
X44601714Y6927047D01*
X44554095Y6879428D01*
X44458857Y6831809D01*
X44077904Y6831809D01*
X44982666Y7355619D02*
X45649333Y7355619D01*
X45220761Y6355619D01*
%TO.C,R8*%
X44594333Y4535619D02*
X44261000Y5011809D01*
X44022904Y4535619D02*
X44022904Y5535619D01*
X44403857Y5535619D01*
X44499095Y5488000D01*
X44546714Y5440380D01*
X44594333Y5345142D01*
X44594333Y5202285D01*
X44546714Y5107047D01*
X44499095Y5059428D01*
X44403857Y5011809D01*
X44022904Y5011809D01*
X45165761Y5107047D02*
X45070523Y5154666D01*
X45022904Y5202285D01*
X44975285Y5297523D01*
X44975285Y5345142D01*
X45022904Y5440380D01*
X45070523Y5488000D01*
X45165761Y5535619D01*
X45356238Y5535619D01*
X45451476Y5488000D01*
X45499095Y5440380D01*
X45546714Y5345142D01*
X45546714Y5297523D01*
X45499095Y5202285D01*
X45451476Y5154666D01*
X45356238Y5107047D01*
X45165761Y5107047D01*
X45070523Y5059428D01*
X45022904Y5011809D01*
X44975285Y4916571D01*
X44975285Y4726095D01*
X45022904Y4630857D01*
X45070523Y4583238D01*
X45165761Y4535619D01*
X45356238Y4535619D01*
X45451476Y4583238D01*
X45499095Y4630857D01*
X45546714Y4726095D01*
X45546714Y4916571D01*
X45499095Y5011809D01*
X45451476Y5059428D01*
X45356238Y5107047D01*
%TO.C,SW1*%
X17666666Y-11530761D02*
X17809523Y-11578380D01*
X18047619Y-11578380D01*
X18142857Y-11530761D01*
X18190476Y-11483142D01*
X18238095Y-11387904D01*
X18238095Y-11292666D01*
X18190476Y-11197428D01*
X18142857Y-11149809D01*
X18047619Y-11102190D01*
X17857142Y-11054571D01*
X17761904Y-11006952D01*
X17714285Y-10959333D01*
X17666666Y-10864095D01*
X17666666Y-10768857D01*
X17714285Y-10673619D01*
X17761904Y-10626000D01*
X17857142Y-10578380D01*
X18095238Y-10578380D01*
X18238095Y-10626000D01*
X18571428Y-10578380D02*
X18809523Y-11578380D01*
X19000000Y-10864095D01*
X19190476Y-11578380D01*
X19428571Y-10578380D01*
X20333333Y-11578380D02*
X19761904Y-11578380D01*
X20047619Y-11578380D02*
X20047619Y-10578380D01*
X19952380Y-10721238D01*
X19857142Y-10816476D01*
X19761904Y-10864095D01*
%TO.C,SW2*%
X36666666Y-11530761D02*
X36809523Y-11578380D01*
X37047619Y-11578380D01*
X37142857Y-11530761D01*
X37190476Y-11483142D01*
X37238095Y-11387904D01*
X37238095Y-11292666D01*
X37190476Y-11197428D01*
X37142857Y-11149809D01*
X37047619Y-11102190D01*
X36857142Y-11054571D01*
X36761904Y-11006952D01*
X36714285Y-10959333D01*
X36666666Y-10864095D01*
X36666666Y-10768857D01*
X36714285Y-10673619D01*
X36761904Y-10626000D01*
X36857142Y-10578380D01*
X37095238Y-10578380D01*
X37238095Y-10626000D01*
X37571428Y-10578380D02*
X37809523Y-11578380D01*
X38000000Y-10864095D01*
X38190476Y-11578380D01*
X38428571Y-10578380D01*
X38761904Y-10673619D02*
X38809523Y-10626000D01*
X38904761Y-10578380D01*
X39142857Y-10578380D01*
X39238095Y-10626000D01*
X39285714Y-10673619D01*
X39333333Y-10768857D01*
X39333333Y-10864095D01*
X39285714Y-11006952D01*
X38714285Y-11578380D01*
X39333333Y-11578380D01*
%TO.C,SW3*%
X55666666Y-11530761D02*
X55809523Y-11578380D01*
X56047619Y-11578380D01*
X56142857Y-11530761D01*
X56190476Y-11483142D01*
X56238095Y-11387904D01*
X56238095Y-11292666D01*
X56190476Y-11197428D01*
X56142857Y-11149809D01*
X56047619Y-11102190D01*
X55857142Y-11054571D01*
X55761904Y-11006952D01*
X55714285Y-10959333D01*
X55666666Y-10864095D01*
X55666666Y-10768857D01*
X55714285Y-10673619D01*
X55761904Y-10626000D01*
X55857142Y-10578380D01*
X56095238Y-10578380D01*
X56238095Y-10626000D01*
X56571428Y-10578380D02*
X56809523Y-11578380D01*
X57000000Y-10864095D01*
X57190476Y-11578380D01*
X57428571Y-10578380D01*
X57714285Y-10578380D02*
X58333333Y-10578380D01*
X58000000Y-10959333D01*
X58142857Y-10959333D01*
X58238095Y-11006952D01*
X58285714Y-11054571D01*
X58333333Y-11149809D01*
X58333333Y-11387904D01*
X58285714Y-11483142D01*
X58238095Y-11530761D01*
X58142857Y-11578380D01*
X57857142Y-11578380D01*
X57761904Y-11530761D01*
X57714285Y-11483142D01*
%TO.C,SW4*%
X74666666Y-11530761D02*
X74809523Y-11578380D01*
X75047619Y-11578380D01*
X75142857Y-11530761D01*
X75190476Y-11483142D01*
X75238095Y-11387904D01*
X75238095Y-11292666D01*
X75190476Y-11197428D01*
X75142857Y-11149809D01*
X75047619Y-11102190D01*
X74857142Y-11054571D01*
X74761904Y-11006952D01*
X74714285Y-10959333D01*
X74666666Y-10864095D01*
X74666666Y-10768857D01*
X74714285Y-10673619D01*
X74761904Y-10626000D01*
X74857142Y-10578380D01*
X75095238Y-10578380D01*
X75238095Y-10626000D01*
X75571428Y-10578380D02*
X75809523Y-11578380D01*
X76000000Y-10864095D01*
X76190476Y-11578380D01*
X76428571Y-10578380D01*
X77238095Y-10911714D02*
X77238095Y-11578380D01*
X77000000Y-10530761D02*
X76761904Y-11245047D01*
X77380952Y-11245047D01*
%TO.C,SW5*%
X17666666Y-30530761D02*
X17809523Y-30578380D01*
X18047619Y-30578380D01*
X18142857Y-30530761D01*
X18190476Y-30483142D01*
X18238095Y-30387904D01*
X18238095Y-30292666D01*
X18190476Y-30197428D01*
X18142857Y-30149809D01*
X18047619Y-30102190D01*
X17857142Y-30054571D01*
X17761904Y-30006952D01*
X17714285Y-29959333D01*
X17666666Y-29864095D01*
X17666666Y-29768857D01*
X17714285Y-29673619D01*
X17761904Y-29626000D01*
X17857142Y-29578380D01*
X18095238Y-29578380D01*
X18238095Y-29626000D01*
X18571428Y-29578380D02*
X18809523Y-30578380D01*
X19000000Y-29864095D01*
X19190476Y-30578380D01*
X19428571Y-29578380D01*
X20285714Y-29578380D02*
X19809523Y-29578380D01*
X19761904Y-30054571D01*
X19809523Y-30006952D01*
X19904761Y-29959333D01*
X20142857Y-29959333D01*
X20238095Y-30006952D01*
X20285714Y-30054571D01*
X20333333Y-30149809D01*
X20333333Y-30387904D01*
X20285714Y-30483142D01*
X20238095Y-30530761D01*
X20142857Y-30578380D01*
X19904761Y-30578380D01*
X19809523Y-30530761D01*
X19761904Y-30483142D01*
%TO.C,SW6*%
X36666666Y-30530761D02*
X36809523Y-30578380D01*
X37047619Y-30578380D01*
X37142857Y-30530761D01*
X37190476Y-30483142D01*
X37238095Y-30387904D01*
X37238095Y-30292666D01*
X37190476Y-30197428D01*
X37142857Y-30149809D01*
X37047619Y-30102190D01*
X36857142Y-30054571D01*
X36761904Y-30006952D01*
X36714285Y-29959333D01*
X36666666Y-29864095D01*
X36666666Y-29768857D01*
X36714285Y-29673619D01*
X36761904Y-29626000D01*
X36857142Y-29578380D01*
X37095238Y-29578380D01*
X37238095Y-29626000D01*
X37571428Y-29578380D02*
X37809523Y-30578380D01*
X38000000Y-29864095D01*
X38190476Y-30578380D01*
X38428571Y-29578380D01*
X39238095Y-29578380D02*
X39047619Y-29578380D01*
X38952380Y-29626000D01*
X38904761Y-29673619D01*
X38809523Y-29816476D01*
X38761904Y-30006952D01*
X38761904Y-30387904D01*
X38809523Y-30483142D01*
X38857142Y-30530761D01*
X38952380Y-30578380D01*
X39142857Y-30578380D01*
X39238095Y-30530761D01*
X39285714Y-30483142D01*
X39333333Y-30387904D01*
X39333333Y-30149809D01*
X39285714Y-30054571D01*
X39238095Y-30006952D01*
X39142857Y-29959333D01*
X38952380Y-29959333D01*
X38857142Y-30006952D01*
X38809523Y-30054571D01*
X38761904Y-30149809D01*
%TO.C,SW7*%
X55666666Y-30530761D02*
X55809523Y-30578380D01*
X56047619Y-30578380D01*
X56142857Y-30530761D01*
X56190476Y-30483142D01*
X56238095Y-30387904D01*
X56238095Y-30292666D01*
X56190476Y-30197428D01*
X56142857Y-30149809D01*
X56047619Y-30102190D01*
X55857142Y-30054571D01*
X55761904Y-30006952D01*
X55714285Y-29959333D01*
X55666666Y-29864095D01*
X55666666Y-29768857D01*
X55714285Y-29673619D01*
X55761904Y-29626000D01*
X55857142Y-29578380D01*
X56095238Y-29578380D01*
X56238095Y-29626000D01*
X56571428Y-29578380D02*
X56809523Y-30578380D01*
X57000000Y-29864095D01*
X57190476Y-30578380D01*
X57428571Y-29578380D01*
X57714285Y-29578380D02*
X58380952Y-29578380D01*
X57952380Y-30578380D01*
%TO.C,SW8*%
X74666666Y-30530761D02*
X74809523Y-30578380D01*
X75047619Y-30578380D01*
X75142857Y-30530761D01*
X75190476Y-30483142D01*
X75238095Y-30387904D01*
X75238095Y-30292666D01*
X75190476Y-30197428D01*
X75142857Y-30149809D01*
X75047619Y-30102190D01*
X74857142Y-30054571D01*
X74761904Y-30006952D01*
X74714285Y-29959333D01*
X74666666Y-29864095D01*
X74666666Y-29768857D01*
X74714285Y-29673619D01*
X74761904Y-29626000D01*
X74857142Y-29578380D01*
X75095238Y-29578380D01*
X75238095Y-29626000D01*
X75571428Y-29578380D02*
X75809523Y-30578380D01*
X76000000Y-29864095D01*
X76190476Y-30578380D01*
X76428571Y-29578380D01*
X76952380Y-30006952D02*
X76857142Y-29959333D01*
X76809523Y-29911714D01*
X76761904Y-29816476D01*
X76761904Y-29768857D01*
X76809523Y-29673619D01*
X76857142Y-29626000D01*
X76952380Y-29578380D01*
X77142857Y-29578380D01*
X77238095Y-29626000D01*
X77285714Y-29673619D01*
X77333333Y-29768857D01*
X77333333Y-29816476D01*
X77285714Y-29911714D01*
X77238095Y-29959333D01*
X77142857Y-30006952D01*
X76952380Y-30006952D01*
X76857142Y-30054571D01*
X76809523Y-30102190D01*
X76761904Y-30197428D01*
X76761904Y-30387904D01*
X76809523Y-30483142D01*
X76857142Y-30530761D01*
X76952380Y-30578380D01*
X77142857Y-30578380D01*
X77238095Y-30530761D01*
X77285714Y-30483142D01*
X77333333Y-30387904D01*
X77333333Y-30197428D01*
X77285714Y-30102190D01*
X77238095Y-30054571D01*
X77142857Y-30006952D01*
%TO.C,SW9*%
X17666666Y-49530761D02*
X17809523Y-49578380D01*
X18047619Y-49578380D01*
X18142857Y-49530761D01*
X18190476Y-49483142D01*
X18238095Y-49387904D01*
X18238095Y-49292666D01*
X18190476Y-49197428D01*
X18142857Y-49149809D01*
X18047619Y-49102190D01*
X17857142Y-49054571D01*
X17761904Y-49006952D01*
X17714285Y-48959333D01*
X17666666Y-48864095D01*
X17666666Y-48768857D01*
X17714285Y-48673619D01*
X17761904Y-48626000D01*
X17857142Y-48578380D01*
X18095238Y-48578380D01*
X18238095Y-48626000D01*
X18571428Y-48578380D02*
X18809523Y-49578380D01*
X19000000Y-48864095D01*
X19190476Y-49578380D01*
X19428571Y-48578380D01*
X19857142Y-49578380D02*
X20047619Y-49578380D01*
X20142857Y-49530761D01*
X20190476Y-49483142D01*
X20285714Y-49340285D01*
X20333333Y-49149809D01*
X20333333Y-48768857D01*
X20285714Y-48673619D01*
X20238095Y-48626000D01*
X20142857Y-48578380D01*
X19952380Y-48578380D01*
X19857142Y-48626000D01*
X19809523Y-48673619D01*
X19761904Y-48768857D01*
X19761904Y-49006952D01*
X19809523Y-49102190D01*
X19857142Y-49149809D01*
X19952380Y-49197428D01*
X20142857Y-49197428D01*
X20238095Y-49149809D01*
X20285714Y-49102190D01*
X20333333Y-49006952D01*
%TO.C,SW10*%
X36190476Y-49530761D02*
X36333333Y-49578380D01*
X36571428Y-49578380D01*
X36666666Y-49530761D01*
X36714285Y-49483142D01*
X36761904Y-49387904D01*
X36761904Y-49292666D01*
X36714285Y-49197428D01*
X36666666Y-49149809D01*
X36571428Y-49102190D01*
X36380952Y-49054571D01*
X36285714Y-49006952D01*
X36238095Y-48959333D01*
X36190476Y-48864095D01*
X36190476Y-48768857D01*
X36238095Y-48673619D01*
X36285714Y-48626000D01*
X36380952Y-48578380D01*
X36619047Y-48578380D01*
X36761904Y-48626000D01*
X37095238Y-48578380D02*
X37333333Y-49578380D01*
X37523809Y-48864095D01*
X37714285Y-49578380D01*
X37952380Y-48578380D01*
X38857142Y-49578380D02*
X38285714Y-49578380D01*
X38571428Y-49578380D02*
X38571428Y-48578380D01*
X38476190Y-48721238D01*
X38380952Y-48816476D01*
X38285714Y-48864095D01*
X39476190Y-48578380D02*
X39571428Y-48578380D01*
X39666666Y-48626000D01*
X39714285Y-48673619D01*
X39761904Y-48768857D01*
X39809523Y-48959333D01*
X39809523Y-49197428D01*
X39761904Y-49387904D01*
X39714285Y-49483142D01*
X39666666Y-49530761D01*
X39571428Y-49578380D01*
X39476190Y-49578380D01*
X39380952Y-49530761D01*
X39333333Y-49483142D01*
X39285714Y-49387904D01*
X39238095Y-49197428D01*
X39238095Y-48959333D01*
X39285714Y-48768857D01*
X39333333Y-48673619D01*
X39380952Y-48626000D01*
X39476190Y-48578380D01*
%TO.C,SW11*%
X55190476Y-49530761D02*
X55333333Y-49578380D01*
X55571428Y-49578380D01*
X55666666Y-49530761D01*
X55714285Y-49483142D01*
X55761904Y-49387904D01*
X55761904Y-49292666D01*
X55714285Y-49197428D01*
X55666666Y-49149809D01*
X55571428Y-49102190D01*
X55380952Y-49054571D01*
X55285714Y-49006952D01*
X55238095Y-48959333D01*
X55190476Y-48864095D01*
X55190476Y-48768857D01*
X55238095Y-48673619D01*
X55285714Y-48626000D01*
X55380952Y-48578380D01*
X55619047Y-48578380D01*
X55761904Y-48626000D01*
X56095238Y-48578380D02*
X56333333Y-49578380D01*
X56523809Y-48864095D01*
X56714285Y-49578380D01*
X56952380Y-48578380D01*
X57857142Y-49578380D02*
X57285714Y-49578380D01*
X57571428Y-49578380D02*
X57571428Y-48578380D01*
X57476190Y-48721238D01*
X57380952Y-48816476D01*
X57285714Y-48864095D01*
X58809523Y-49578380D02*
X58238095Y-49578380D01*
X58523809Y-49578380D02*
X58523809Y-48578380D01*
X58428571Y-48721238D01*
X58333333Y-48816476D01*
X58238095Y-48864095D01*
%TO.C,SW12*%
X74190476Y-49530761D02*
X74333333Y-49578380D01*
X74571428Y-49578380D01*
X74666666Y-49530761D01*
X74714285Y-49483142D01*
X74761904Y-49387904D01*
X74761904Y-49292666D01*
X74714285Y-49197428D01*
X74666666Y-49149809D01*
X74571428Y-49102190D01*
X74380952Y-49054571D01*
X74285714Y-49006952D01*
X74238095Y-48959333D01*
X74190476Y-48864095D01*
X74190476Y-48768857D01*
X74238095Y-48673619D01*
X74285714Y-48626000D01*
X74380952Y-48578380D01*
X74619047Y-48578380D01*
X74761904Y-48626000D01*
X75095238Y-48578380D02*
X75333333Y-49578380D01*
X75523809Y-48864095D01*
X75714285Y-49578380D01*
X75952380Y-48578380D01*
X76857142Y-49578380D02*
X76285714Y-49578380D01*
X76571428Y-49578380D02*
X76571428Y-48578380D01*
X76476190Y-48721238D01*
X76380952Y-48816476D01*
X76285714Y-48864095D01*
X77238095Y-48673619D02*
X77285714Y-48626000D01*
X77380952Y-48578380D01*
X77619047Y-48578380D01*
X77714285Y-48626000D01*
X77761904Y-48673619D01*
X77809523Y-48768857D01*
X77809523Y-48864095D01*
X77761904Y-49006952D01*
X77190476Y-49578380D01*
X77809523Y-49578380D01*
%TO.C,SW13*%
X17190476Y-68530761D02*
X17333333Y-68578380D01*
X17571428Y-68578380D01*
X17666666Y-68530761D01*
X17714285Y-68483142D01*
X17761904Y-68387904D01*
X17761904Y-68292666D01*
X17714285Y-68197428D01*
X17666666Y-68149809D01*
X17571428Y-68102190D01*
X17380952Y-68054571D01*
X17285714Y-68006952D01*
X17238095Y-67959333D01*
X17190476Y-67864095D01*
X17190476Y-67768857D01*
X17238095Y-67673619D01*
X17285714Y-67626000D01*
X17380952Y-67578380D01*
X17619047Y-67578380D01*
X17761904Y-67626000D01*
X18095238Y-67578380D02*
X18333333Y-68578380D01*
X18523809Y-67864095D01*
X18714285Y-68578380D01*
X18952380Y-67578380D01*
X19857142Y-68578380D02*
X19285714Y-68578380D01*
X19571428Y-68578380D02*
X19571428Y-67578380D01*
X19476190Y-67721238D01*
X19380952Y-67816476D01*
X19285714Y-67864095D01*
X20190476Y-67578380D02*
X20809523Y-67578380D01*
X20476190Y-67959333D01*
X20619047Y-67959333D01*
X20714285Y-68006952D01*
X20761904Y-68054571D01*
X20809523Y-68149809D01*
X20809523Y-68387904D01*
X20761904Y-68483142D01*
X20714285Y-68530761D01*
X20619047Y-68578380D01*
X20333333Y-68578380D01*
X20238095Y-68530761D01*
X20190476Y-68483142D01*
%TO.C,SW14*%
X36190476Y-68530761D02*
X36333333Y-68578380D01*
X36571428Y-68578380D01*
X36666666Y-68530761D01*
X36714285Y-68483142D01*
X36761904Y-68387904D01*
X36761904Y-68292666D01*
X36714285Y-68197428D01*
X36666666Y-68149809D01*
X36571428Y-68102190D01*
X36380952Y-68054571D01*
X36285714Y-68006952D01*
X36238095Y-67959333D01*
X36190476Y-67864095D01*
X36190476Y-67768857D01*
X36238095Y-67673619D01*
X36285714Y-67626000D01*
X36380952Y-67578380D01*
X36619047Y-67578380D01*
X36761904Y-67626000D01*
X37095238Y-67578380D02*
X37333333Y-68578380D01*
X37523809Y-67864095D01*
X37714285Y-68578380D01*
X37952380Y-67578380D01*
X38857142Y-68578380D02*
X38285714Y-68578380D01*
X38571428Y-68578380D02*
X38571428Y-67578380D01*
X38476190Y-67721238D01*
X38380952Y-67816476D01*
X38285714Y-67864095D01*
X39714285Y-67911714D02*
X39714285Y-68578380D01*
X39476190Y-67530761D02*
X39238095Y-68245047D01*
X39857142Y-68245047D01*
%TO.C,SW15*%
X55190476Y-68530761D02*
X55333333Y-68578380D01*
X55571428Y-68578380D01*
X55666666Y-68530761D01*
X55714285Y-68483142D01*
X55761904Y-68387904D01*
X55761904Y-68292666D01*
X55714285Y-68197428D01*
X55666666Y-68149809D01*
X55571428Y-68102190D01*
X55380952Y-68054571D01*
X55285714Y-68006952D01*
X55238095Y-67959333D01*
X55190476Y-67864095D01*
X55190476Y-67768857D01*
X55238095Y-67673619D01*
X55285714Y-67626000D01*
X55380952Y-67578380D01*
X55619047Y-67578380D01*
X55761904Y-67626000D01*
X56095238Y-67578380D02*
X56333333Y-68578380D01*
X56523809Y-67864095D01*
X56714285Y-68578380D01*
X56952380Y-67578380D01*
X57857142Y-68578380D02*
X57285714Y-68578380D01*
X57571428Y-68578380D02*
X57571428Y-67578380D01*
X57476190Y-67721238D01*
X57380952Y-67816476D01*
X57285714Y-67864095D01*
X58761904Y-67578380D02*
X58285714Y-67578380D01*
X58238095Y-68054571D01*
X58285714Y-68006952D01*
X58380952Y-67959333D01*
X58619047Y-67959333D01*
X58714285Y-68006952D01*
X58761904Y-68054571D01*
X58809523Y-68149809D01*
X58809523Y-68387904D01*
X58761904Y-68483142D01*
X58714285Y-68530761D01*
X58619047Y-68578380D01*
X58380952Y-68578380D01*
X58285714Y-68530761D01*
X58238095Y-68483142D01*
%TO.C,SW16*%
X74190476Y-68530761D02*
X74333333Y-68578380D01*
X74571428Y-68578380D01*
X74666666Y-68530761D01*
X74714285Y-68483142D01*
X74761904Y-68387904D01*
X74761904Y-68292666D01*
X74714285Y-68197428D01*
X74666666Y-68149809D01*
X74571428Y-68102190D01*
X74380952Y-68054571D01*
X74285714Y-68006952D01*
X74238095Y-67959333D01*
X74190476Y-67864095D01*
X74190476Y-67768857D01*
X74238095Y-67673619D01*
X74285714Y-67626000D01*
X74380952Y-67578380D01*
X74619047Y-67578380D01*
X74761904Y-67626000D01*
X75095238Y-67578380D02*
X75333333Y-68578380D01*
X75523809Y-67864095D01*
X75714285Y-68578380D01*
X75952380Y-67578380D01*
X76857142Y-68578380D02*
X76285714Y-68578380D01*
X76571428Y-68578380D02*
X76571428Y-67578380D01*
X76476190Y-67721238D01*
X76380952Y-67816476D01*
X76285714Y-67864095D01*
X77714285Y-67578380D02*
X77523809Y-67578380D01*
X77428571Y-67626000D01*
X77380952Y-67673619D01*
X77285714Y-67816476D01*
X77238095Y-68006952D01*
X77238095Y-68387904D01*
X77285714Y-68483142D01*
X77333333Y-68530761D01*
X77428571Y-68578380D01*
X77619047Y-68578380D01*
X77714285Y-68530761D01*
X77761904Y-68483142D01*
X77809523Y-68387904D01*
X77809523Y-68149809D01*
X77761904Y-68054571D01*
X77714285Y-68006952D01*
X77619047Y-67959333D01*
X77428571Y-67959333D01*
X77333333Y-68006952D01*
X77285714Y-68054571D01*
X77238095Y-68149809D01*
%TO.C,SW17*%
X17190476Y-87530761D02*
X17333333Y-87578380D01*
X17571428Y-87578380D01*
X17666666Y-87530761D01*
X17714285Y-87483142D01*
X17761904Y-87387904D01*
X17761904Y-87292666D01*
X17714285Y-87197428D01*
X17666666Y-87149809D01*
X17571428Y-87102190D01*
X17380952Y-87054571D01*
X17285714Y-87006952D01*
X17238095Y-86959333D01*
X17190476Y-86864095D01*
X17190476Y-86768857D01*
X17238095Y-86673619D01*
X17285714Y-86626000D01*
X17380952Y-86578380D01*
X17619047Y-86578380D01*
X17761904Y-86626000D01*
X18095238Y-86578380D02*
X18333333Y-87578380D01*
X18523809Y-86864095D01*
X18714285Y-87578380D01*
X18952380Y-86578380D01*
X19857142Y-87578380D02*
X19285714Y-87578380D01*
X19571428Y-87578380D02*
X19571428Y-86578380D01*
X19476190Y-86721238D01*
X19380952Y-86816476D01*
X19285714Y-86864095D01*
X20190476Y-86578380D02*
X20857142Y-86578380D01*
X20428571Y-87578380D01*
%TO.C,SW18*%
X36190476Y-87530761D02*
X36333333Y-87578380D01*
X36571428Y-87578380D01*
X36666666Y-87530761D01*
X36714285Y-87483142D01*
X36761904Y-87387904D01*
X36761904Y-87292666D01*
X36714285Y-87197428D01*
X36666666Y-87149809D01*
X36571428Y-87102190D01*
X36380952Y-87054571D01*
X36285714Y-87006952D01*
X36238095Y-86959333D01*
X36190476Y-86864095D01*
X36190476Y-86768857D01*
X36238095Y-86673619D01*
X36285714Y-86626000D01*
X36380952Y-86578380D01*
X36619047Y-86578380D01*
X36761904Y-86626000D01*
X37095238Y-86578380D02*
X37333333Y-87578380D01*
X37523809Y-86864095D01*
X37714285Y-87578380D01*
X37952380Y-86578380D01*
X38857142Y-87578380D02*
X38285714Y-87578380D01*
X38571428Y-87578380D02*
X38571428Y-86578380D01*
X38476190Y-86721238D01*
X38380952Y-86816476D01*
X38285714Y-86864095D01*
X39428571Y-87006952D02*
X39333333Y-86959333D01*
X39285714Y-86911714D01*
X39238095Y-86816476D01*
X39238095Y-86768857D01*
X39285714Y-86673619D01*
X39333333Y-86626000D01*
X39428571Y-86578380D01*
X39619047Y-86578380D01*
X39714285Y-86626000D01*
X39761904Y-86673619D01*
X39809523Y-86768857D01*
X39809523Y-86816476D01*
X39761904Y-86911714D01*
X39714285Y-86959333D01*
X39619047Y-87006952D01*
X39428571Y-87006952D01*
X39333333Y-87054571D01*
X39285714Y-87102190D01*
X39238095Y-87197428D01*
X39238095Y-87387904D01*
X39285714Y-87483142D01*
X39333333Y-87530761D01*
X39428571Y-87578380D01*
X39619047Y-87578380D01*
X39714285Y-87530761D01*
X39761904Y-87483142D01*
X39809523Y-87387904D01*
X39809523Y-87197428D01*
X39761904Y-87102190D01*
X39714285Y-87054571D01*
X39619047Y-87006952D01*
%TO.C,SW19*%
X55190476Y-87530761D02*
X55333333Y-87578380D01*
X55571428Y-87578380D01*
X55666666Y-87530761D01*
X55714285Y-87483142D01*
X55761904Y-87387904D01*
X55761904Y-87292666D01*
X55714285Y-87197428D01*
X55666666Y-87149809D01*
X55571428Y-87102190D01*
X55380952Y-87054571D01*
X55285714Y-87006952D01*
X55238095Y-86959333D01*
X55190476Y-86864095D01*
X55190476Y-86768857D01*
X55238095Y-86673619D01*
X55285714Y-86626000D01*
X55380952Y-86578380D01*
X55619047Y-86578380D01*
X55761904Y-86626000D01*
X56095238Y-86578380D02*
X56333333Y-87578380D01*
X56523809Y-86864095D01*
X56714285Y-87578380D01*
X56952380Y-86578380D01*
X57857142Y-87578380D02*
X57285714Y-87578380D01*
X57571428Y-87578380D02*
X57571428Y-86578380D01*
X57476190Y-86721238D01*
X57380952Y-86816476D01*
X57285714Y-86864095D01*
X58333333Y-87578380D02*
X58523809Y-87578380D01*
X58619047Y-87530761D01*
X58666666Y-87483142D01*
X58761904Y-87340285D01*
X58809523Y-87149809D01*
X58809523Y-86768857D01*
X58761904Y-86673619D01*
X58714285Y-86626000D01*
X58619047Y-86578380D01*
X58428571Y-86578380D01*
X58333333Y-86626000D01*
X58285714Y-86673619D01*
X58238095Y-86768857D01*
X58238095Y-87006952D01*
X58285714Y-87102190D01*
X58333333Y-87149809D01*
X58428571Y-87197428D01*
X58619047Y-87197428D01*
X58714285Y-87149809D01*
X58761904Y-87102190D01*
X58809523Y-87006952D01*
%TO.C,SW20*%
X74190476Y-87530761D02*
X74333333Y-87578380D01*
X74571428Y-87578380D01*
X74666666Y-87530761D01*
X74714285Y-87483142D01*
X74761904Y-87387904D01*
X74761904Y-87292666D01*
X74714285Y-87197428D01*
X74666666Y-87149809D01*
X74571428Y-87102190D01*
X74380952Y-87054571D01*
X74285714Y-87006952D01*
X74238095Y-86959333D01*
X74190476Y-86864095D01*
X74190476Y-86768857D01*
X74238095Y-86673619D01*
X74285714Y-86626000D01*
X74380952Y-86578380D01*
X74619047Y-86578380D01*
X74761904Y-86626000D01*
X75095238Y-86578380D02*
X75333333Y-87578380D01*
X75523809Y-86864095D01*
X75714285Y-87578380D01*
X75952380Y-86578380D01*
X76285714Y-86673619D02*
X76333333Y-86626000D01*
X76428571Y-86578380D01*
X76666666Y-86578380D01*
X76761904Y-86626000D01*
X76809523Y-86673619D01*
X76857142Y-86768857D01*
X76857142Y-86864095D01*
X76809523Y-87006952D01*
X76238095Y-87578380D01*
X76857142Y-87578380D01*
X77476190Y-86578380D02*
X77571428Y-86578380D01*
X77666666Y-86626000D01*
X77714285Y-86673619D01*
X77761904Y-86768857D01*
X77809523Y-86959333D01*
X77809523Y-87197428D01*
X77761904Y-87387904D01*
X77714285Y-87483142D01*
X77666666Y-87530761D01*
X77571428Y-87578380D01*
X77476190Y-87578380D01*
X77380952Y-87530761D01*
X77333333Y-87483142D01*
X77285714Y-87387904D01*
X77238095Y-87197428D01*
X77238095Y-86959333D01*
X77285714Y-86768857D01*
X77333333Y-86673619D01*
X77380952Y-86626000D01*
X77476190Y-86578380D01*
%TO.C,U1*%
X28085095Y3398619D02*
X28085095Y2589095D01*
X28132714Y2493857D01*
X28180333Y2446238D01*
X28275571Y2398619D01*
X28466047Y2398619D01*
X28561285Y2446238D01*
X28608904Y2493857D01*
X28656523Y2589095D01*
X28656523Y3398619D01*
X29656523Y2398619D02*
X29085095Y2398619D01*
X29370809Y2398619D02*
X29370809Y3398619D01*
X29275571Y3255761D01*
X29180333Y3160523D01*
X29085095Y3112904D01*
%TO.C,U3*%
X39624095Y14832619D02*
X39624095Y14023095D01*
X39671714Y13927857D01*
X39719333Y13880238D01*
X39814571Y13832619D01*
X40005047Y13832619D01*
X40100285Y13880238D01*
X40147904Y13927857D01*
X40195523Y14023095D01*
X40195523Y14832619D01*
X40576476Y14832619D02*
X41195523Y14832619D01*
X40862190Y14451666D01*
X41005047Y14451666D01*
X41100285Y14404047D01*
X41147904Y14356428D01*
X41195523Y14261190D01*
X41195523Y14023095D01*
X41147904Y13927857D01*
X41100285Y13880238D01*
X41005047Y13832619D01*
X40719333Y13832619D01*
X40624095Y13880238D01*
X40576476Y13927857D01*
%TO.C,Y1*%
X75350190Y10632809D02*
X75826380Y10632809D01*
X74826380Y10299476D02*
X75350190Y10632809D01*
X74826380Y10966142D01*
X75826380Y11823285D02*
X75826380Y11251857D01*
X75826380Y11537571D02*
X74826380Y11537571D01*
X74969238Y11442333D01*
X75064476Y11347095D01*
X75112095Y11251857D01*
%TD*%
M02*
